<svg id="Livello_1" data-name="Livello 1" xmlns="http://www.w3.org/2000/svg" viewBox="0 0 580 200"><defs><style>.cls-1{fill:#fff;}</style></defs><path class="cls-1" d="M96.21,52.57C102.83,64.9,92.61,69.73,82.66,72c-.78,1.43-1.23,4,2,4.37,7.13-.17,34.51-.9,36.09,2.47,3.48,5.34,4.79,21.15,1,35.43-3.93,8.46-45-1.52-39.92,15.7,2.16.83,3.4.5,6.59-.92a14.27,14.27,0,0,1,8.08-.33c5.06,1.54,14.72,12,33.94,5.71,2.14,5.17,5.91,8.42,8,14-26,13.44-38.29-10.18-55.06,1.77-3.65,3.13-9.62,2.52-9.62,2.52-2.68-.34-4.89-.74-10.81-4.26-8.32-7.71-30,12.72-47.89-2,1.72-5.28,6.58-10.37,8-14,13.08,3.68,15.22,3.25,30.51-2.88a24.79,24.79,0,0,1,9.92-.06c5.6,2.59,5.82.45,5.82.45,6-14.82-13.15-6.34-35.14-11.4-2.62-4.36-4-28.39-1-33.43,10.78-6.8,26.4-5.85,39.3-8.79C75.11,68,68.15,71,65.24,61.8,64.83,45.33,89,43.67,96.21,52.57ZM74.94,60.64c-1.16,6.68,15.1,6.07,13.85-2.58C87.47,51.66,74.78,54.57,74.94,60.64Zm-29.35,31c-.68,3.64-1.32,12.14-.41,17,1.91,6.07,51.82,3.91,62.35,0,3.73-6,1.82-19.13.82-20.25C89.79,84.42,59.62,86,45.59,91.66Z"/><path class="cls-1" d="M175,87.5v27.64h-3.56V87.5Z"/><path class="cls-1" d="M181.45,100.66c0-2,0-3.73-.16-5.37h3.18l.21,3.28h.08a7.26,7.26,0,0,1,6.54-3.73c2.73,0,7,1.64,7,8.45v11.85h-3.6V103.7c0-3.2-1.18-5.87-4.58-5.87a5.11,5.11,0,0,0-4.82,3.69,5.3,5.3,0,0,0-.25,1.68v11.94h-3.59V100.66Z"/><path class="cls-1" d="M204.5,115.13V98h-2.78V95.29h2.78v-1c0-2.79.61-5.33,2.29-6.93a6.88,6.88,0,0,1,4.82-1.84,8.3,8.3,0,0,1,3.07.57l-.49,2.79a5.46,5.46,0,0,0-2.29-.45c-3.06,0-3.84,2.7-3.84,5.74v1.07h4.78V98h-4.78v17.09Z"/><path class="cls-1" d="M233.44,105c0,7.35-5.06,10.55-9.85,10.55-5.35,0-9.48-3.94-9.48-10.21,0-6.65,4.33-10.55,9.81-10.55C229.6,94.83,233.44,99,233.44,105Zm-15.7.22c0,4.34,2.5,7.62,6,7.62s6-3.24,6-7.71c0-3.36-1.67-7.63-5.92-7.63S217.74,101.48,217.74,105.26Z"/><path class="cls-1" d="M238,101.48c0-2.34,0-4.35-.17-6.19H241l.13,3.89h.16a6,6,0,0,1,5.48-4.35,3.89,3.89,0,0,1,1,.13v3.4a5.47,5.47,0,0,0-1.22-.12c-2.54,0-4.34,1.92-4.83,4.63a10.42,10.42,0,0,0-.16,1.68v10.58H238V101.48Z"/><path class="cls-1" d="M251.5,100.66c0-2,0-3.73-.16-5.37h3.15l.16,3.2h.12A6.83,6.83,0,0,1,261,94.84a5.85,5.85,0,0,1,5.6,4h.08a8,8,0,0,1,2.21-2.58,6.68,6.68,0,0,1,4.37-1.4c2.62,0,6.5,1.73,6.5,8.61v11.69h-3.52V103.9c0-3.81-1.39-6.11-4.29-6.11a4.66,4.66,0,0,0-4.25,3.28,6.07,6.07,0,0,0-.29,1.81v12.26h-3.51V103.25c0-3.16-1.39-5.46-4.13-5.46a4.93,4.93,0,0,0-4.46,3.61,5.08,5.08,0,0,0-.28,1.76v12H251.5V100.66Z"/><path class="cls-1" d="M296.55,115.13l-.29-2.5h-.12a7.33,7.33,0,0,1-6.05,3,5.64,5.64,0,0,1-6-5.7c0-4.8,4.25-7.42,11.89-7.38v-.41c0-1.64-.45-4.59-4.49-4.59A9.85,9.85,0,0,0,286.29,99l-.82-2.38a12.3,12.3,0,0,1,6.5-1.76c6,0,7.52,4.14,7.52,8.12v7.42a28.67,28.67,0,0,0,.32,4.76h-3.26ZM296,105c-3.93-.09-8.38.61-8.38,4.47a3.18,3.18,0,0,0,3.39,3.44,4.94,4.94,0,0,0,4.79-3.32,3.86,3.86,0,0,0,.2-1.15V105Z"/><path class="cls-1" d="M309.46,89.59v5.7h5.16V98h-5.16v10.7c0,2.46.7,3.86,2.7,3.86a8.13,8.13,0,0,0,2.09-.25l.16,2.7a8.71,8.71,0,0,1-3.19.49,5,5,0,0,1-3.89-1.51c-1-1.07-1.39-2.83-1.39-5.17V98h-3.06V95.29h3.06V90.53Z"/><path class="cls-1" d="M322.66,89.71a2.12,2.12,0,0,1-2.29,2.21,2.15,2.15,0,0,1-2.17-2.21,2.19,2.19,0,0,1,2.25-2.25A2.13,2.13,0,0,1,322.66,89.71Zm-4,25.42V95.29h3.6v19.84Z"/><path class="cls-1" d="M342.33,114.4a13.3,13.3,0,0,1-5.69,1.14c-6,0-9.85-4.05-9.85-10.12S331,94.88,337.42,94.88a12,12,0,0,1,5,1l-.82,2.79a8.3,8.3,0,0,0-4.17-.94c-4.54,0-7,3.36-7,7.5,0,4.6,2.94,7.43,6.87,7.43a10.27,10.27,0,0,0,4.42-1Z"/><path class="cls-1" d="M357.49,115.13l-.29-2.5h-.12a7.33,7.33,0,0,1-6.05,3,5.64,5.64,0,0,1-6-5.7c0-4.8,4.25-7.42,11.9-7.38v-.41c0-1.64-.46-4.59-4.5-4.59A9.85,9.85,0,0,0,347.23,99l-.83-2.38a12.37,12.37,0,0,1,6.51-1.76c6,0,7.52,4.14,7.52,8.12v7.42a27.56,27.56,0,0,0,.33,4.76h-3.27ZM357,105c-3.93-.09-8.38.61-8.38,4.47a3.18,3.18,0,0,0,3.39,3.44,4.94,4.94,0,0,0,4.79-3.32,3.86,3.86,0,0,0,.2-1.15Z"/><path class="cls-1" d="M372.16,87.5v15.91c0,4.76,1.8,7.18,5,7.18s5.07-2.3,5.07-7.18V87.5h6.21V103c0,8.53-4.29,12.59-11.49,12.59-6.95,0-11-3.85-11-12.67V87.5Z"/><path class="cls-1" d="M393.62,101.48c0-2.5-.09-4.63-.16-6.39h5.23l.28,2.7h.13a6.92,6.92,0,0,1,6-3.16A5.67,5.67,0,0,1,410.63,98h.08a8.91,8.91,0,0,1,2.58-2.42,7.15,7.15,0,0,1,3.8-1c3.84,0,6.75,2.71,6.75,8.7v11.81h-6.06V104.23c0-2.91-.93-4.6-2.94-4.6a3,3,0,0,0-2.86,2.18,5.35,5.35,0,0,0-.25,1.6v11.73h-6.05V103.9c0-2.54-.9-4.26-2.86-4.26a3.17,3.17,0,0,0-2.91,2.25,4.24,4.24,0,0,0-.24,1.56v11.69h-6.05V101.48Z"/><path class="cls-1" d="M440.13,115.13l-.37-2h-.12a7.19,7.19,0,0,1-5.72,2.46,6.14,6.14,0,0,1-6.46-6.16c0-5.21,4.66-7.71,11.73-7.66v-.29c0-1.07-.57-2.59-3.64-2.59a11.17,11.17,0,0,0-5.51,1.52l-1.15-4a16.46,16.46,0,0,1,7.77-1.76c6.66,0,8.79,3.94,8.79,8.65v7a30.34,30.34,0,0,0,.29,4.88Zm-.73-9.47c-3.27,0-5.81.74-5.81,3.16a2.24,2.24,0,0,0,2.46,2.38,3.4,3.4,0,0,0,3.22-2.29,4.7,4.7,0,0,0,.13-1.08v-2.17Z"/><path class="cls-1" d="M450.35,101.48c0-2.5-.08-4.63-.16-6.39h5.39l.29,2.74H456a7.33,7.33,0,0,1,6.17-3.2c4.1,0,7.16,2.71,7.16,8.62v11.89h-6.21V104c0-2.58-.9-4.34-3.15-4.34a3.31,3.31,0,0,0-3.15,2.33,4.37,4.37,0,0,0-.24,1.56v11.57h-6.22V101.48Z"/><path class="cls-1" d="M480.72,89.51a3.12,3.12,0,0,1-3.35,3.11,3.14,3.14,0,1,1,0-6.27A3.12,3.12,0,0,1,480.72,89.51Zm-6.42,25.62v-20h6.21v20Z"/><path class="cls-1" d="M485.46,109.68a12,12,0,0,0,5.35,1.52c1.89,0,2.66-.66,2.66-1.68s-.61-1.52-2.94-2.3c-4.14-1.39-5.73-3.65-5.68-6,0-3.73,3.19-6.56,8.13-6.56a13.27,13.27,0,0,1,5.64,1.15l-1.1,4.3a9.79,9.79,0,0,0-4.33-1.15c-1.52,0-2.38.62-2.38,1.64s.78,1.44,3.23,2.3c3.8,1.31,5.4,3.24,5.44,6.19,0,3.73-2.94,6.48-8.67,6.48a14.17,14.17,0,0,1-6.46-1.39Z"/><path class="cls-1" d="M510.19,89.34v5.74h4.45v4.6h-4.45v7.25c0,2.43.57,3.53,2.45,3.53a10.44,10.44,0,0,0,1.84-.16l0,4.72a12.38,12.38,0,0,1-4,.53,6.46,6.46,0,0,1-4.66-1.72c-1.15-1.19-1.72-3.12-1.72-6v-8.2h-2.66v-4.6h2.66V90.73Z"/><path class="cls-1" d="M524.65,89.51a3.12,3.12,0,0,1-3.35,3.11,3.14,3.14,0,1,1,.05-6.27A3.11,3.11,0,0,1,524.65,89.51Zm-6.41,25.62v-20h6.21v20Z"/><path class="cls-1" d="M544.44,114.65a15.2,15.2,0,0,1-5.56.9c-6.46,0-10.59-3.94-10.59-10.25,0-5.87,4-10.67,11.45-10.67a14.45,14.45,0,0,1,4.74.78l-1,4.63a8.64,8.64,0,0,0-3.47-.61,5.62,5.62,0,0,0,.12,11.23,9.52,9.52,0,0,0,3.55-.61Z"/><path class="cls-1" d="M559.4,115.13l-.37-2h-.12a7.21,7.21,0,0,1-5.73,2.46,6.15,6.15,0,0,1-6.46-6.16c0-5.21,4.66-7.71,11.74-7.66v-.29c0-1.07-.57-2.59-3.64-2.59a11.18,11.18,0,0,0-5.52,1.52l-1.15-4a16.46,16.46,0,0,1,7.77-1.76c6.67,0,8.79,3.94,8.79,8.65v7a30.34,30.34,0,0,0,.29,4.88Zm-.74-9.47c-3.27,0-5.8.74-5.8,3.16a2.23,2.23,0,0,0,2.45,2.38,3.4,3.4,0,0,0,3.23-2.29,4.7,4.7,0,0,0,.13-1.08v-2.17Z"/></svg>