<svg id="Livello_1" data-name="Livello 1" xmlns="http://www.w3.org/2000/svg" viewBox="0 0 580 200"><defs><style>.cls-1{fill:#f5f5f6;}</style></defs><path class="cls-1" d="M15.66,154.89V128h3.85v24h12.2v2.86Z"/><path class="cls-1" d="M46.07,152.38c-2.16,2-4.24,3-6.25,3a5.7,5.7,0,0,1-4.1-1.53,5.09,5.09,0,0,1-1.63-3.88,5.53,5.53,0,0,1,2.74-5q2.73-1.76,7.85-1.75h.86v-2.37c0-2.3-1.19-3.44-3.56-3.44a13.4,13.4,0,0,0-6.17,1.74v-3a18.34,18.34,0,0,1,6.83-1.47,7,7,0,0,1,4.92,1.48,6.12,6.12,0,0,1,1.59,4.65v8.94c0,2.05.63,3.08,1.9,3.08a6.46,6.46,0,0,0,.7-.07l.26,2a6.39,6.39,0,0,1-2.71.58C47.61,155.35,46.54,154.36,46.07,152.38Zm-.53-1.94v-5.11l-1.21,0a9.07,9.07,0,0,0-4.8,1.12,3.35,3.35,0,0,0-1.83,2.94,2.94,2.94,0,0,0,.92,2.18,3.09,3.09,0,0,0,2.23.89A7.55,7.55,0,0,0,45.54,150.44Z"/><path class="cls-1" d="M56.57,155.11V126.18h3.61v12.67a7.14,7.14,0,0,1,6.65-4.14,6.82,6.82,0,0,1,5.66,2.6,11.15,11.15,0,0,1,2.06,7.1,12.57,12.57,0,0,1-2.34,7.93,7.39,7.39,0,0,1-6.15,3,7.48,7.48,0,0,1-5.88-2.7l-.44,2.46Zm3.61-4.93a8.23,8.23,0,0,0,5.32,2.47c3.46,0,5.2-2.61,5.2-7.87q0-6.94-4.62-6.94-3,0-5.9,3.25Z"/><path class="cls-1" d="M88,155.35a8.77,8.77,0,0,1-6.82-2.81A10.77,10.77,0,0,1,78.65,145a10.67,10.67,0,0,1,2.56-7.54,9,9,0,0,1,6.93-2.77,9,9,0,0,1,6.94,2.77,10.61,10.61,0,0,1,2.56,7.5,10.73,10.73,0,0,1-2.57,7.6A9.16,9.16,0,0,1,88,155.35Zm0-2.7q5.73,0,5.74-7.67t-5.67-7.58q-5.64,0-5.64,7.62T88.07,152.65Z"/><path class="cls-1" d="M103.32,154.89V135.14h3.61v3.71q2.13-4.14,6.23-4.14a7.83,7.83,0,0,1,1.15.09v3.34a5.51,5.51,0,0,0-1.65-.3q-3.42,0-5.73,4v13h-3.61Z"/><path class="cls-1" d="M129,152.38c-2.16,2-4.25,3-6.25,3a5.71,5.71,0,0,1-4.1-1.53,5.09,5.09,0,0,1-1.63-3.88,5.53,5.53,0,0,1,2.74-5q2.73-1.76,7.85-1.75h.86v-2.37c0-2.3-1.19-3.44-3.55-3.44a13.4,13.4,0,0,0-6.18,1.74v-3a18.34,18.34,0,0,1,6.83-1.47,7.07,7.07,0,0,1,4.93,1.48,6.15,6.15,0,0,1,1.58,4.65v8.94c0,2.05.64,3.08,1.91,3.08a6.1,6.1,0,0,0,.69-.07l.26,2a6.39,6.39,0,0,1-2.71.58Q129.67,155.35,129,152.38Zm-.53-1.94v-5.11l-1.21,0a9.07,9.07,0,0,0-4.8,1.12,3.35,3.35,0,0,0-1.83,2.94,2.93,2.93,0,0,0,.91,2.18,3.11,3.11,0,0,0,2.24.89A7.55,7.55,0,0,0,128.44,150.44Z"/><path class="cls-1" d="M145.44,155.35a5.69,5.69,0,0,1-4.28-1.57,5.9,5.9,0,0,1-1.54-4.34v-11.6h-2.49v-2.7h2.49v-3.58l3.61-.35v3.93h5.2v2.7h-5.2v10.94q0,3.87,3.37,3.87a7.78,7.78,0,0,0,1.74-.23v2.47A11.42,11.42,0,0,1,145.44,155.35Z"/><path class="cls-1" d="M161.33,155.35a8.73,8.73,0,0,1-6.81-2.81A10.77,10.77,0,0,1,152,145a10.67,10.67,0,0,1,2.56-7.54,10.07,10.07,0,0,1,13.87,0,12.43,12.43,0,0,1,0,15.1A9.18,9.18,0,0,1,161.33,155.35Zm.06-2.7q5.73,0,5.73-7.67t-5.66-7.58q-5.64,0-5.64,7.62T161.39,152.65Z"/><path class="cls-1" d="M176.63,154.89V135.14h3.61v3.71q2.14-4.14,6.23-4.14a7.72,7.72,0,0,1,1.15.09v3.34a5.45,5.45,0,0,0-1.64-.3q-3.43,0-5.74,4v13h-3.61Z"/><path class="cls-1" d="M192,131.56V128h3.6v3.58Zm0,23.33V135.14h3.6v19.75Z"/><path class="cls-1" d="M210.69,155.35a8.76,8.76,0,0,1-6.81-2.81,12.37,12.37,0,0,1,0-15.06,10.07,10.07,0,0,1,13.87,0,10.61,10.61,0,0,1,2.56,7.5,10.73,10.73,0,0,1-2.57,7.6A9.17,9.17,0,0,1,210.69,155.35Zm.06-2.7q5.73,0,5.74-7.67t-5.67-7.58q-5.64,0-5.64,7.62T210.75,152.65Z"/><path class="cls-1" d="M250.68,154.89v-3.7a7.09,7.09,0,0,1-6.63,4.15,6.84,6.84,0,0,1-5.66-2.59,11.21,11.21,0,0,1-2-7.12,12.52,12.52,0,0,1,2.33-7.92,7.77,7.77,0,0,1,12-.31V126.18h3.63v28.71Zm0-15a8.33,8.33,0,0,0-5.31-2.45q-5.19,0-5.19,7.87,0,6.93,4.62,6.93c2,0,4-1.09,5.88-3.25Z"/><path class="cls-1" d="M261.56,131.56V128h3.61v3.58Zm0,23.33V135.14h3.61v19.75Z"/><path class="cls-1" d="M295.86,155.57q-6.3,0-9.76-3.69t-3.44-10.43q0-6.72,3.5-10.44t9.9-3.71a37.47,37.47,0,0,1,8.53,1.18v3.59a29,29,0,0,0-8.6-1.91,8.33,8.33,0,0,0-6.83,3q-2.42,3-2.42,8.37c0,3.43.86,6.13,2.58,8.12a8.87,8.87,0,0,0,7.06,3,17.72,17.72,0,0,0,8.25-2.35v3.28A19,19,0,0,1,295.86,155.57Z"/><path class="cls-1" d="M322.84,154.89v-3.7c-1.92,2.77-4.24,4.15-7,4.15a5.42,5.42,0,0,1-4.14-1.62,6.12,6.12,0,0,1-1.54-4.39V135.14h3.61v13a5.69,5.69,0,0,0,.65,3.16,2.45,2.45,0,0,0,2.17.93c2.2,0,4.27-1.43,6.23-4.31v-12.8h3.61v19.75Z"/><path class="cls-1" d="M333.76,154.89V126.18h3.61v28.71Z"/><path class="cls-1" d="M350.62,155.35a5.69,5.69,0,0,1-4.28-1.57,5.91,5.91,0,0,1-1.55-4.34v-11.6H342.3v-2.7h2.49v-3.58l3.61-.35v3.93h5.21v2.7H348.4v10.94c0,2.58,1.13,3.87,3.37,3.87a7.79,7.79,0,0,0,1.75-.23v2.47A11.42,11.42,0,0,1,350.62,155.35Z"/><path class="cls-1" d="M371.16,154.89v-3.7c-1.92,2.77-4.24,4.15-7,4.15a5.4,5.4,0,0,1-4.14-1.62,6.12,6.12,0,0,1-1.54-4.39V135.14h3.61v13a5.77,5.77,0,0,0,.65,3.16,2.46,2.46,0,0,0,2.17.93c2.2,0,4.27-1.43,6.23-4.31v-12.8h3.61v19.75Z"/><path class="cls-1" d="M382.09,154.89V135.14h3.6v3.71q2.15-4.14,6.23-4.14a8,8,0,0,1,1.16.09v3.34a5.51,5.51,0,0,0-1.65-.3q-3.44,0-5.74,4v13h-3.6Z"/><path class="cls-1" d="M407.74,152.38c-2.17,2-4.24,3-6.25,3a5.74,5.74,0,0,1-4.11-1.53,5.12,5.12,0,0,1-1.62-3.88,5.53,5.53,0,0,1,2.74-5q2.73-1.76,7.84-1.75h.87v-2.37c0-2.3-1.19-3.44-3.56-3.44a13.43,13.43,0,0,0-6.18,1.74v-3a18.34,18.34,0,0,1,6.84-1.47,7.06,7.06,0,0,1,4.92,1.48,6.11,6.11,0,0,1,1.58,4.65v8.94c0,2.05.64,3.08,1.91,3.08a6.7,6.7,0,0,0,.7-.07l.25,2a6.33,6.33,0,0,1-2.71.58Q408.42,155.35,407.74,152.38Zm-.53-1.94v-5.11l-1.21,0a9.07,9.07,0,0,0-4.8,1.12,3.34,3.34,0,0,0-1.84,2.94,3,3,0,0,0,.91,2.18,3.15,3.15,0,0,0,2.25.89A7.57,7.57,0,0,0,407.21,150.44Z"/><path class="cls-1" d="M430,154.89V128h9a19.81,19.81,0,0,1,6.52.89,10,10,0,0,1,4.3,3,13.29,13.29,0,0,1,2.87,8.9q0,6.72-3.57,10.41t-10.06,3.7H430Zm3.84-2.86h4.93c3.52,0,6-.93,7.48-2.81a12.65,12.65,0,0,0,2.36-8.06,11,11,0,0,0-2.33-7.45,7.14,7.14,0,0,0-3.37-2.27,21,21,0,0,0-5.89-.61h-3.18V152Z"/><path class="cls-1" d="M458.29,131.56V128h3.61v3.58Zm0,23.33V135.14h3.61v19.75Z"/><path class="cls-1" d="M469.25,161.46l.42-3.11a14.48,14.48,0,0,0,6.18,1.47q6.11,0,6.1-6.42v-3.11a6.78,6.78,0,0,1-6.56,4.15,6.93,6.93,0,0,1-5.68-2.58,10.69,10.69,0,0,1-2.1-7,10.93,10.93,0,0,1,2.39-7.34,7.73,7.73,0,0,1,6.21-2.84A7.41,7.41,0,0,1,482,137.4v-2.26h3.63v14.37a34.55,34.55,0,0,1-.49,6.86,7.51,7.51,0,0,1-1.82,3.65c-1.57,1.66-4,2.49-7.35,2.49A21.21,21.21,0,0,1,469.25,161.46Zm12.7-13.4v-8.21a7.17,7.17,0,0,0-5.19-2.45,4.52,4.52,0,0,0-3.9,2,9.25,9.25,0,0,0-1.41,5.44q0,6.5,4.6,6.5C478.14,151.31,480.1,150.22,482,148.06Z"/><path class="cls-1" d="M492.61,131.56V128h3.62v3.58Zm0,23.33V135.14h3.62v19.75Z"/><path class="cls-1" d="M509.47,155.35a5.75,5.75,0,0,1-4.29-1.57,5.94,5.94,0,0,1-1.53-4.34v-11.6h-2.49v-2.7h2.49v-3.58l3.61-.35v3.93h5.2v2.7h-5.2v10.94q0,3.87,3.37,3.87a7.85,7.85,0,0,0,1.74-.23v2.47A11.49,11.49,0,0,1,509.47,155.35Z"/><path class="cls-1" d="M527.83,152.38c-2.16,2-4.24,3-6.25,3a5.71,5.71,0,0,1-4.1-1.53,5.09,5.09,0,0,1-1.63-3.88,5.54,5.54,0,0,1,2.73-5q2.74-1.76,7.86-1.75h.86v-2.37c0-2.3-1.18-3.44-3.55-3.44a13.4,13.4,0,0,0-6.18,1.74v-3a18.38,18.38,0,0,1,6.84-1.47,7,7,0,0,1,4.91,1.48,6.12,6.12,0,0,1,1.59,4.65v8.94c0,2.05.64,3.08,1.91,3.08a6.7,6.7,0,0,0,.7-.07l.25,2a6.36,6.36,0,0,1-2.71.58Q528.53,155.35,527.83,152.38Zm-.53-1.94v-5.11l-1.21,0a9.07,9.07,0,0,0-4.8,1.12,3.35,3.35,0,0,0-1.83,2.94,2.93,2.93,0,0,0,.91,2.18,3.11,3.11,0,0,0,2.24.89A7.55,7.55,0,0,0,527.3,150.44Z"/><path class="cls-1" d="M538.33,154.89V126.18h3.61v28.71Z"/><path class="cls-1" d="M563.8,154.26a22.37,22.37,0,0,1-6.21,1.08,9.52,9.52,0,0,1-7.18-2.89,10.43,10.43,0,0,1-2.77-7.52,10.93,10.93,0,0,1,2.45-7.37,7.85,7.85,0,0,1,6.25-2.87,6.65,6.65,0,0,1,5.58,2.54c1.32,1.7,2,4.12,2,7.24v1.11H551.32q.79,7,6.95,7a16.61,16.61,0,0,0,5.52-1.2v2.84Zm-12.31-11.37h8.78q0-5.5-4.14-5.51C553.35,137.38,551.81,139.22,551.49,142.89Z"/><path class="cls-1" d="M52.82,112.63A37.54,37.54,0,1,0,15,75.09a37.68,37.68,0,0,0,37.82,37.54"/><path class="cls-1" d="M170.21,48.85a37.56,37.56,0,1,0,.25,52l-13.1-26.28Z"/><path class="cls-1" d="M250.79,48.85a37.55,37.55,0,1,0,.26,52L229,74.61Z"/><path class="cls-1" d="M488.19,48.85a37.55,37.55,0,1,0,.26,52l-61.3-26.28Z"/><path class="cls-1" d="M564.89,48.85a37.76,37.76,0,0,0-63.41,17.08Z"/><path class="cls-1" d="M501.48,84.5a37.42,37.42,0,0,0,17.63,23.07A38,38,0,0,0,565,101.19Z"/><path class="cls-1" d="M329.68,49.14a37.55,37.55,0,1,0,.26,52L293.32,74.9Z"/><path class="cls-1" d="M408.09,49.14a37.55,37.55,0,1,0,.26,52L358.67,74.9Z"/></svg>