<svg id="Livello_1" data-name="Livello 1" xmlns="http://www.w3.org/2000/svg" viewBox="0 0 580 200"><defs><style>.cls-1{fill:#fff;}.cls-2{fill:#f29100;}</style></defs><path class="cls-1" d="M155.34,107.54a174.5,174.5,0,0,1,2,25.91c0,17.51-4.06,30-11.76,38.24-7.71,8.41-18.63,13.31-33.9,13.31s-28-4.76-36.7-13.59S61.35,148,61.35,129.67a196.65,196.65,0,0,1,1.12-22.13ZM71.86,119.72a77,77,0,0,0-.7,12.33c0,26,14.56,40.2,40.06,40.2,22.27.14,36.42-12.46,36.42-38.24a69.32,69.32,0,0,0-1.26-14.29Z"/><rect class="cls-1" x="68.63" y="33.08" width="95.95" height="14.23" rx="4.39"/><rect class="cls-1" x="61.07" y="81.71" width="110.21" height="14.23" rx="4.51" transform="translate(27.36 205) rotate(-90)"/><rect class="cls-1" x="83.35" y="61.72" width="89.98" height="14.23"/><rect class="cls-1" x="69.91" y="75.16" width="41.12" height="14.23" transform="translate(8.19 172.74) rotate(-90)"/><rect class="cls-1" x="116.76" y="75.16" width="41.12" height="14.23" transform="translate(55.04 219.59) rotate(-90)"/><circle class="cls-1" cx="57.92" cy="40.2" r="6.17"/><circle class="cls-1" cx="158.41" cy="21.17" r="6.17"/><rect class="cls-1" x="145.65" y="75.16" width="41.12" height="14.23" transform="translate(83.94 248.49) rotate(-90)"/><rect class="cls-2" x="151.2" y="30.78" width="14.6" height="2.67" transform="translate(126.38 190.62) rotate(-90)"/><rect class="cls-2" x="59.35" y="39.77" width="14.6" height="2.67"/><rect class="cls-2" x="83.25" y="102.41" width="14.6" height="2.67" transform="translate(-13.19 194.3) rotate(-90)"/><rect class="cls-2" x="130.1" y="102.41" width="14.6" height="2.67" transform="translate(33.66 241.15) rotate(-90)"/><circle class="cls-2" cx="137.4" cy="69.32" r="4.11"/><circle class="cls-2" cx="151.85" cy="69.32" r="4.11"/><circle class="cls-2" cx="166.3" cy="69.74" r="4.11"/><circle class="cls-2" cx="116.27" cy="135.05" r="4.11"/><path class="cls-1" d="M237.05,69.35h-20.5V62h49.9v7.4h-20.6v60h-8.8Z"/><path class="cls-1" d="M308.85,97.75h-26.2v24.3h29.2v7.3H274V62h36.4v7.3h-27.7v21.3h26.2Z"/><path class="cls-1" d="M323.15,62.85a124.62,124.62,0,0,1,18.5-1.4c12.5,0,21.4,2.9,27.3,8.4s9.5,13.3,9.5,24.2-3.4,20-9.7,26.2S352.05,130,339,130a140.42,140.42,0,0,1-15.8-.8Zm8.7,59.6a54.94,54.94,0,0,0,8.8.5c18.6,0,28.7-10.4,28.7-28.6.1-15.9-8.9-26-27.3-26a49.43,49.43,0,0,0-10.2.9Z"/><path class="cls-1" d="M410.64,58.35h8.8v71h-8.8Z"/><path class="cls-1" d="M461,129.35l-.7-6.1H460a18,18,0,0,1-14.8,7.2c-9.8,0-14.8-6.9-14.8-13.9,0-11.7,10.4-18.1,29.1-18v-1c0-4-1.1-11.2-11-11.2a24.11,24.11,0,0,0-12.6,3.6l-2-5.8a30,30,0,0,1,15.9-4.3c14.8,0,18.4,10.1,18.4,19.8v18.1a68.15,68.15,0,0,0,.8,11.6Zm-1.3-24.7c-9.6-.2-20.5,1.5-20.5,10.9,0,5.7,3.8,8.4,8.3,8.4a12,12,0,0,0,11.7-8.1,9.18,9.18,0,0,0,.5-2.8Z"/><path class="cls-1" d="M482,129.35c.2-3.3.4-8.2.4-12.5V58.35h8.7v30.4h.2c3.1-5.4,8.7-8.9,16.5-8.9,12,0,20.5,10,20.4,24.7,0,17.3-10.9,25.9-21.7,25.9-7,0-12.6-2.7-16.2-9.1H490l-.4,8Zm9.1-19.4a16.48,16.48,0,0,0,.4,3.2,13.58,13.58,0,0,0,13.2,10.3c9.2,0,14.7-7.5,14.7-18.6,0-9.7-5-18-14.4-18-6,0-11.6,4.1-13.4,10.8a17.34,17.34,0,0,0-.5,3.6Z"/></svg>