<svg id="Livello_1" data-name="Livello 1" xmlns="http://www.w3.org/2000/svg" xmlns:xlink="http://www.w3.org/1999/xlink" viewBox="0 0 580 200"><defs><style>.cls-1,.cls-4{fill:none;}.cls-2{clip-path:url(#clip-path);}.cls-3{fill:#fff;}.cls-4{stroke:#fff;stroke-miterlimit:10;stroke-width:2px;}</style><clipPath id="clip-path"><rect class="cls-1" x="15" y="15.7" width="163.32" height="168.6"/></clipPath></defs><g class="cls-2"><path class="cls-3" d="M72.16,175.66l2.43-7.3-4.27-.56.22-.67a19.76,19.76,0,0,0,4.48-.39,7.92,7.92,0,0,0,2-.56l.67.22-3.23,10,2.24,1.62-.18.57-7.1-2.36.2-.57Z"/><path class="cls-3" d="M82.1,183.5l.41-3.46.87.11.6,2.51a10,10,0,0,0,1.63.32,4.43,4.43,0,0,0,3.09-.45,3.23,3.23,0,0,0,1.43-2.32,3.07,3.07,0,0,0-2.59-3.48,3.25,3.25,0,0,0-.44,0h-.8l.13-1.08h.3c2.28.26,3.53-.61,3.71-2.64s-.74-2.92-2.71-3.14a16.57,16.57,0,0,0-1.86-.11l-1.41,2.73-.84-.11L84,169a22.25,22.25,0,0,1,4.61-.23c3,.36,4.67,1.86,4.41,4.09s-1.86,3.2-4.28,3.46c2.6.44,4.13,2.1,3.87,4.23-.32,2.7-2.92,4.15-6.65,3.72a29.87,29.87,0,0,1-3.52-.65h-.39Z"/></g><path class="cls-3" d="M106.37,184.21l2.06-.21-.39-3.6,2.27-.25-.17-1.56-2.27.25-1.09-10.34-1,.12-7.23,12v.76l7.44-.78.37,3.59Zm-5.93-4.59.39-.65,1.19-1.86,1.28-2.23,1.47-2.59.24-.4.76,7.22-5.33.58Z"/><path class="cls-3" d="M117.72,182l-1.13-3.27.84-.28,1.63,2a9,9,0,0,0,1.6-.41,4.42,4.42,0,0,0,2.58-1.72,3.26,3.26,0,0,0,.3-2.74,3.07,3.07,0,0,0-3.84-2,3.69,3.69,0,0,0-.42.17l-.74.26-.35-1.05.26-.09c2.19-.74,2.93-2.08,2.26-4A2.61,2.61,0,0,0,117.5,167a3,3,0,0,0-.5.19,15.32,15.32,0,0,0-1.73.71l-.11,3.07-.8.28-1.1-3.2a21.87,21.87,0,0,1,4.07-2.19c2.85-1,5-.28,5.74,1.85a4.18,4.18,0,0,1-2.37,5c2.54-.73,4.62.11,5.33,2.15.87,2.57-.86,5-4.4,6.23a26,26,0,0,1-3.46.93h-.37Z"/><path class="cls-3" d="M52.13,165a3,3,0,1,1,4.14-.71l0,0a3,3,0,0,1-4.12.69Z"/><polygon class="cls-3" points="43.78 142.92 43.36 143.23 41.72 142.21 32.26 148.92 32.69 150.79 32.24 151.11 29.01 146.54 29.44 146.24 31.09 147.28 40.55 140.56 40.1 138.66 40.55 138.34 43.78 142.92 43.78 142.92"/><polygon class="cls-3" points="37.99 134.7 37.5 134.93 36.11 133.59 25.5 138.27 25.54 140.2 25.05 140.41 23.64 137.21 29.88 126.03 21.69 129.63 21.73 131.56 21.24 131.78 19.33 127.44 19.81 127.21 21.23 128.57 33.19 123.29 33.45 123.87 26.2 136.67 35.65 132.53 35.59 130.58 36.07 130.35 37.99 134.7 37.99 134.7"/><g class="cls-2"><path class="cls-3" d="M29,108.15l-3.1.18v-.76l2.55-1.21a10.15,10.15,0,0,0,0-1.56c-.12-2-1-3-2.46-2.88-1,0-1.5.47-2.36,2l-1.2,2.16a4.87,4.87,0,0,1-1.57,2,3.09,3.09,0,0,1-1.85.59,3.71,3.71,0,0,1-4-3.44c0-.13,0-.26,0-.39v-1.59a2.85,2.85,0,0,1,.11-1.12l.15-.89v-.3l3-.18v.78l-2.49,1.15v.17a6.37,6.37,0,0,0,0,1.07c.13,2.12.84,3.09,2.23,3,1,0,1.38-.4,2.23-1.85l1.28-2.34c.78-1.4.89-1.58,1.47-2a3.87,3.87,0,0,1,2.1-.74c2.34-.13,4,1.52,4.13,4.27a12.88,12.88,0,0,1-.19,2.56l-.2,1.21v.24Z"/><path class="cls-3" d="M15.52,92.93,15,92.82l.89-5.58h.53l.44,1.86,8.38,1.36c2.51.41,3.72-.5,4.18-2.94s-.48-3.84-2.91-4.25L18,81.89l-1,1.66h-.52l.8-4.89h.52l.44,1.86,8,1.3a4.39,4.39,0,0,1,3.89,2.6,6.15,6.15,0,0,1,.24,3.6C29.77,91.57,28.12,93,25,92.45l-8.52-1.38-1,1.64Z"/></g><path class="cls-3" d="M34.83,71.71l-.5-.21L32.8,73.27l-4.38-1.86L29,70c1.19-2.92.45-5.36-1.85-6.32a3.67,3.67,0,0,0-3.14,0,5.22,5.22,0,0,0-2.42,3.1l-2,5L20,72l1.37-1.36L32.1,75v1.86l.48.21,2.28-5.58Zm-13.14-3,.56-1.36A2.54,2.54,0,0,1,24,65.45a3.66,3.66,0,0,1,2.33.24,3.42,3.42,0,0,1,1.85,1.45,3.14,3.14,0,0,1,0,3l-.37.91Z"/><path class="cls-3" d="M35.51,56.32h8.18l2-2.79-.44-.29-1.56.93-7.23.16a3.72,3.72,0,0,0-1-4.81,3.19,3.19,0,0,0-2.82-.5c-1,.3-1.47.74-2.44,2.12l-3.27,4.72.43.29,1.64-1,9.51,6.62L38,63.59l.45.3,3.16-4.52-.45-.32-1.63,1.06L35.07,57Zm-5.81-3.1L30.53,52a2.44,2.44,0,0,1,3.35-.81,2.51,2.51,0,0,1,.37.27,2.68,2.68,0,0,1,1.08,3.63,1.59,1.59,0,0,1-.13.22l-.82,1.17Z"/><polygon class="cls-3" points="46.22 43.59 50.14 47.87 53.6 44.71 52.96 42.14 53.48 41.66 55.45 44.28 47.98 51.14 47.61 50.75 48.43 48.98 40.61 40.43 38.78 41.09 38.43 40.69 45.85 33.91 47.98 36.25 47.46 36.74 45.16 35.7 41.8 38.76 45.66 42.96 48.48 40.38 47.72 38.48 48.19 38.06 51.33 41.48 50.86 41.9 49.06 41.01 46.22 43.59 46.22 43.59"/><g class="cls-2"><polygon class="cls-3" points="64.91 34.19 63.83 22.78 67.42 20.94 67.66 21.41 66.4 22.89 71.73 33.19 73.66 33.02 73.92 33.5 68.94 36.07 68.7 35.6 69.97 34.12 65.15 24.82 66.32 37.55 65.93 37.74 56.31 29.41 61.1 38.69 63.05 38.52 63.3 38.98 59.08 41.18 58.84 40.71 60.06 39.23 54.75 28.93 52.81 29.08 52.57 28.62 56.29 26.7 64.91 34.19 64.91 34.19"/><path class="cls-3" d="M85.22,29.64l-1.45,1v.52l9.5-1.54L93,26.37l-.74.11L91.37,29l-4.12.65-.93-5.58,3.38-.57,1,1.74.65-.11-.76-4.59-.65.11-.39,2-3.4.58-1-5.84,4.09-.69,1.38,2.12.72-.11-.52-3.14L82.58,17,78.14,30.88l-1.45,1v.52l4.57-.79v-.52l-1.7-.5,1.54-5.24,3.36-.57Zm-3.83-5.32,1.86-6.43,1,6Z"/></g><path class="cls-3" d="M112.71,32a6.77,6.77,0,0,0,8.72-3.93,7.21,7.21,0,0,0,.34-1.29,6.83,6.83,0,0,0-.37-5.1,6.19,6.19,0,0,0-4.74-3.19l-6.09-1.64-.15.51,1.52,1.18-3,11.15-1.86.25-.13.52,5.8,1.56ZM114,18.67l2.17.6a4.46,4.46,0,0,1,3.48,2.79,6.71,6.71,0,0,1,0,4.38,6.5,6.5,0,0,1-2.85,4.18,4.56,4.56,0,0,1-4.08.39l-2-.52,3.18-11.82Z"/><polygon class="cls-3" points="124.08 35.96 124.32 35.49 126.25 35.64 131.53 25.33 130.28 23.86 130.53 23.38 135.51 25.94 135.26 26.41 133.33 26.24 128.04 36.57 129.3 38.04 129.06 38.52 124.08 35.96 124.08 35.96"/><path class="cls-3" d="M145,44.5l-2.42,3.16-.28-.11a16.07,16.07,0,0,1-3.93-2.28,6.27,6.27,0,0,1-2.77-4.72,7.28,7.28,0,0,1,1.85-5,7.07,7.07,0,0,1,9.82-1.85,7.19,7.19,0,0,1,1,.79A14.78,14.78,0,0,1,151,37.28l.16.22-2,2.45-.63-.52.91-2.62a8.65,8.65,0,0,0-1.23-1.19A5.72,5.72,0,0,0,143.59,34a6.64,6.64,0,0,0-4.37,2.75c-2.41,3-2.23,5.93.5,8.14A11,11,0,0,0,141.36,46l2.19-2.71-.93-1.69.34-.41,4.35,3.53-.34.41Z"/><polygon class="cls-3" points="146.3 52.05 146.73 51.73 148.38 52.74 157.75 45.88 157.28 44 157.71 43.69 159.79 46.51 156.11 58.77 163.32 53.48 162.86 51.6 163.29 51.29 166.11 55.11 165.68 55.43 164.01 54.43 153.46 62.16 153.09 61.66 157.4 47.57 149.07 53.66 149.56 55.56 149.13 55.88 146.3 52.05 146.3 52.05"/><polygon class="cls-3" points="156.45 67.36 156.93 67.14 158.36 68.44 168.9 63.59 168.82 61.67 169.31 61.45 171.65 66.54 171.17 66.77 169.74 65.43 159.2 70.28 159.27 72.21 158.79 72.43 156.45 67.36 156.45 67.36"/><polygon class="cls-3" points="162.82 80.5 174.36 77.51 173.56 74.4 170.87 74.09 170.68 73.34 174.05 72.49 176.98 83.86 173.62 84.73 173.43 84.01 175.63 82.43 174.86 79.44 163.32 82.41 163.16 84.75 162.66 84.88 161.04 78.66 161.54 78.51 162.82 80.5 162.82 80.5"/><path class="cls-3" d="M169.81,98.84l-4.33,1.67-.86-1.58h-.52l.19,5.39h.52l.74-1.63,12.77-5.08V96.42l-13.16-4.9-.83-1.6h-.54l.17,4.64h.52l.74-1.65,4.44,1.47Zm6.11-2.31c-.67.23-1,.34-1.86.67l-3.41,1.29-.13-3.72,5.42,1.86Z"/><polygon class="cls-3" points="164.33 111.92 176.05 114.08 176.63 110.92 174.31 109.5 174.46 108.76 177.87 109.38 175.76 120.93 172.34 120.3 172.47 119.58 175.12 119.08 175.68 116.03 163.96 113.89 162.84 115.93 162.32 115.84 163.47 109.5 163.99 109.6 164.33 111.92 164.33 111.92"/><polygon class="cls-3" points="160.56 122.01 161.06 122.2 161.13 124.11 171.98 128.18 173.3 126.79 173.81 126.97 171.84 132.21 171.35 132.03 171.28 130.08 160.43 126.01 159.09 127.44 158.6 127.25 160.56 122.01 160.56 122.01"/><path class="cls-3" d="M156.93,132.32l2.7,1.56-.39.67-2.79-.44a9.64,9.64,0,0,0-.89,1.3c-1,1.71-.84,3,.44,3.72.89.52,1.49.46,3.05-.32l2.21-1.12a4.93,4.93,0,0,1,2.36-.74,3.14,3.14,0,0,1,1.86.47,3.71,3.71,0,0,1,1.37,5.07,3.78,3.78,0,0,1-.22.33,13.15,13.15,0,0,1-.91,1.3c-.3.38-.54.67-.72.86l-.62.67-.2.22-2.6-1.52.41-.67,2.69.43.11-.13c.22-.3.41-.6.6-.92,1.07-1.85,1-3-.21-3.71-.83-.5-1.35-.45-2.9.35l-2.37,1.23a5.21,5.21,0,0,1-2.36.87,3.82,3.82,0,0,1-2.16-.56c-2-1.19-2.43-3.47-1-5.85a13.48,13.48,0,0,1,1.58-2l.83-.87Z"/><path class="cls-3" d="M144.8,162.13a2.92,2.92,0,0,1-4.11-.44l0,0a2.92,2.92,0,1,1,4.13.46Z"/><path class="cls-3" d="M88.92,77.64a4.76,4.76,0,0,0,1.13-1.86,9.17,9.17,0,0,0,.38-1.86v-.35h0a5.31,5.31,0,0,1,3.34-4.83l.86-.51a1.57,1.57,0,0,0,.55-1h0l.11-.63c0-.9-.11-1.49-.59-1.75-2.82-1.62-5.2,2.08-5.46,2.51a6.09,6.09,0,0,0-.84,2.1v1c-.24,2.06-.46,4-1.62,4.81a1.83,1.83,0,0,1-1.56.26,2.48,2.48,0,0,1-1.86-1.73A2.45,2.45,0,0,0,83,75.18a7.34,7.34,0,0,0,.17,1.4,1.77,1.77,0,0,0,.39.83,3.84,3.84,0,0,0,2.52,1.25,3.8,3.8,0,0,0,2.9-1Z"/><path class="cls-3" d="M93,72a3.91,3.91,0,0,1,1.21.26,3,3,0,0,1,.13-.59l-.15-.93A2.9,2.9,0,0,0,93,72Z"/><path class="cls-3" d="M84.74,80.39a5.06,5.06,0,0,1-1-.41,1.09,1.09,0,0,1-.17.69.61.61,0,0,0,0,.27.28.28,0,0,0,0,.13,2.25,2.25,0,0,0,.8-.48A1.11,1.11,0,0,1,84.74,80.39Z"/><path class="cls-3" d="M92.12,78.66a4.25,4.25,0,0,1-1-.71l-.17.24a2.11,2.11,0,0,0,1,.45h.15Z"/><path class="cls-3" d="M109.12,83.68a1.37,1.37,0,0,0,1.43.16l.73-.44a2.35,2.35,0,0,0,.87-1.16h0l.11-.79a4.86,4.86,0,0,0,0-.54v-.39h0a6.69,6.69,0,0,0-.2-.77,4.33,4.33,0,0,1-1,.65,2.66,2.66,0,0,1,0,.69A2.18,2.18,0,0,1,110,83a1.84,1.84,0,0,1-1.38.13,3.36,3.36,0,0,0,.45.6Z"/><path class="cls-3" d="M109.14,80.91h-.39a.86.86,0,0,0,.35.16v-.24Z"/><path class="cls-3" d="M112.78,72.8V71.32h0l-.17-.67a5,5,0,0,0-4.16-3.57h-1.32a7.73,7.73,0,0,1,.74,1.9h0a2.94,2.94,0,0,1,.12.59l.13,1.06a9.43,9.43,0,0,0,.74,3.36c.37,0,.54-.2.54-.57a2.62,2.62,0,0,0,0-.56l.09-1c0-.3.21-.34.47-.5s.57,0,.85.13h0a4,4,0,0,1,1.86,1.26Z"/><path class="cls-3" d="M82.1,83.77a1.36,1.36,0,0,0,1.43-.19A2.37,2.37,0,0,0,84,83a1.74,1.74,0,0,1-2-.8,2.29,2.29,0,0,1,0,.37,6.49,6.49,0,0,1,0,1.08l.23.13Z"/><path class="cls-3" d="M93.64,77a2.73,2.73,0,0,0,1.12-.22A2.57,2.57,0,0,0,96,75.37,2.81,2.81,0,0,1,96,75v-.11a4.86,4.86,0,0,0,0-.54L95.67,74a2.46,2.46,0,0,1-.34.56.94.94,0,0,1-.89.24,1.06,1.06,0,0,1-.76-.63v.09c0-.09-.36-.31-1.08-.31a3.41,3.41,0,0,0-.32.2A10.35,10.35,0,0,1,92,75.91,1.84,1.84,0,0,0,93.55,77Z"/><path class="cls-3" d="M106.13,69.87a7,7,0,0,0-1.64-3.16,3.71,3.71,0,0,0-4.68-1.45H99.7l-.41.69a2.72,2.72,0,0,0,0,.57v.28a1.13,1.13,0,0,0,0,.26.61.61,0,0,0,0,.19,3.84,3.84,0,0,0,0,.48c.2.88.65,1.08,1.45,1.47l.28.15h0l.7.37A5.29,5.29,0,0,1,104,73.55l.19.69.26,1.48h0v.11a1.31,1.31,0,0,0,.15.49v-.15a3.72,3.72,0,0,0,4,2.77l1-.23a3.17,3.17,0,0,0,1.71-1.3h0l.22-.54a6.43,6.43,0,0,0,.15-1.39,2.44,2.44,0,0,0-.32-1.32,2.42,2.42,0,0,1-1.85,1.73,1.9,1.9,0,0,1-1.57-.26c-1.15-.8-1.37-2.75-1.61-4.81l-.11-1Z"/><path class="cls-3" d="M84.48,66.93h0A5.58,5.58,0,0,0,80,71l-.11.63v1.64c0,2.43-.22,5.22-2.1,5.57A1.62,1.62,0,0,1,76,78.14l-.14.11h0a1.13,1.13,0,0,0-.34.52v.37a.69.69,0,0,1,0,.35v.17h0a.81.81,0,0,0,0,.22h0a.74.74,0,0,0,0,.21h0a.54.54,0,0,0,0,.18h0a.74.74,0,0,0,0,.21h0a.48.48,0,0,0,.13.32l.48,1,.13.2c.26.39.67.86,1.14.86.87,0,1.24-.86,1.86-2.87l.37-1.28A4.76,4.76,0,0,1,80,78V77.9a2.34,2.34,0,0,1,.33-.51h0a2.31,2.31,0,0,1,1-.68v-.13a8.51,8.51,0,0,0-.15-1,1.4,1.4,0,0,0,0-.29V75a1.5,1.5,0,0,0,0-.3v-.8a2.48,2.48,0,0,1,.17-.59v-.13a4.12,4.12,0,0,1,.33-.62l.28-.16a2.35,2.35,0,0,1,.33-.37l.19-.17.41-.28.2-.13a6.43,6.43,0,0,1,.71-.32h0c.3-.09.61-.29.87-.13s.43.19.45.51l.09,1a5.42,5.42,0,0,0,0,.57c0,.4.17.49.52.58a9.24,9.24,0,0,0,.76-3.36V69.22l.11-.54A8.29,8.29,0,0,1,87.16,67a13.44,13.44,0,0,0-2-.21.92.92,0,0,1-.69,0Z"/><path class="cls-3" d="M97.56,72.9a4.48,4.48,0,0,0,1.73.41c1.39,0,1.5-.77,1.54-1a2.94,2.94,0,0,0,0-.42v-.32h0a.86.86,0,0,0-.2-.26l-.39-.2a1.78,1.78,0,0,0-.71-.15,2.29,2.29,0,0,0-.3.5,1.06,1.06,0,0,1-.81.54,1,1,0,0,1-.88-.41,1.66,1.66,0,0,1-.18-.35V71.1l-.11-.34v-.11a6.15,6.15,0,0,0-.19-1v-.13a2.28,2.28,0,0,1,0-.37.28.28,0,0,1,0-.13v-.37a3.17,3.17,0,0,1-.63.87,2.62,2.62,0,0,1-.11.88v.11l.16.93a2.49,2.49,0,0,0,1.32,1.47Z"/><path class="cls-3" d="M81.86,79.38a3.53,3.53,0,0,0,0-.46h0a.58.58,0,0,0-.11.15,1.61,1.61,0,0,1,0,.31Z"/><path class="cls-3" d="M77.6,66.69l-.14-.24c-.41-1-2.55-1.86-5.17-2.16H69.46a7.56,7.56,0,0,1-1.65.13,13.1,13.1,0,0,1,1.64,2.92,12.07,12.07,0,0,1,.68,2.29v.55a9.2,9.2,0,0,0,1.42,4.06,17.67,17.67,0,0,0,2.5,3.15l.15-.2v-.3a5.94,5.94,0,0,1,.34-2.13l.26-.52a7,7,0,0,1,2.49-3.72c.18-.8.52-2.27.56-2.47a3,3,0,0,0,0-.54c0-.48,0-.58-.19-.74Z"/><path class="cls-3" d="M76.4,75.52a1.17,1.17,0,0,0-.1.41.86.86,0,0,1,.32,0,.8.8,0,0,1,.76.48,1.13,1.13,0,0,1,0,.26,14.78,14.78,0,0,0,.43-3.87v-.24A8.26,8.26,0,0,0,76.54,75l-.24.59Z"/><path class="cls-3" d="M110.18,54.32v-.1a.73.73,0,0,0-.5-.76,1.23,1.23,0,0,1-.43-.28,53.26,53.26,0,0,0-6.8.39,71.93,71.93,0,0,0-8.85,1.69,3.32,3.32,0,0,1,1.08,2.25.91.91,0,0,1,.48-.13c1.4-.43,2.9-.82,4.48-1.17a45.58,45.58,0,0,1,9.09-1.06h.58c.78-.17.87-.61.87-.85Z"/><path class="cls-3" d="M87.56,63.18A4.53,4.53,0,0,1,87,65a6.71,6.71,0,0,1,1.41.24C90.26,63,93,61.56,95.74,63.2A3,3,0,0,1,97,64.61a5.2,5.2,0,0,1,1.85-1H99a5,5,0,0,1,5.74.67v-.36a17,17,0,0,0-2-1.34h0A30,30,0,0,0,99,60.84a1,1,0,0,1-1-.37c-.81-.3-1.67-.58-2.56-.84L94.25,60a1,1,0,0,1-1.11.41A30.77,30.77,0,0,0,89.83,62s-1.63,1-2.06,1.38Z"/><path class="cls-3" d="M100.78,78.86c.83,0,2-.76,2-1.32v-.76l-.1-.31a.41.41,0,0,0-.35-.28h-.58a1.41,1.41,0,0,0-.68.5A1,1,0,0,1,100,77a1.73,1.73,0,0,1-.54-.28h-.11a2.31,2.31,0,0,1-.34-.36h0a2.81,2.81,0,0,1-.44-1h-.41v.5a2.88,2.88,0,0,0,2.5,3.22l.27,0Z"/><path class="cls-3" d="M99.29,58.76c.71.28,1.39.55,2,.85v-.13a3.78,3.78,0,0,1,.53-1.62L100,58.2l-.93.22.15.34Z"/><path class="cls-3" d="M78.37,94.53a3.35,3.35,0,0,0,1-2.51V91.2h-1.5a4.32,4.32,0,0,1-1.31,2.29l-.18.68a10,10,0,0,0-.5,2.75A5.48,5.48,0,0,0,76,98.06a4.79,4.79,0,0,0,1.11,2.4,1.09,1.09,0,0,0,.6.33,1,1,0,0,0,.8-.15,1,1,0,0,0,.11-.24,1.78,1.78,0,0,1-.82-.47A2.62,2.62,0,0,1,77,98.08,5.73,5.73,0,0,1,77.46,96l1.05-1.49Z"/><path class="cls-3" d="M109.62,57.14h-2.34a1.17,1.17,0,0,1-.22.67,1.14,1.14,0,0,1-1.16.31l-.76-.24a1.66,1.66,0,0,0-1.17.41,1.86,1.86,0,0,0-.24,2.42,12.52,12.52,0,0,1,1.15.7,4.24,4.24,0,0,1,1.21-1.85,4,4,0,0,1,3-.88h.22v0a4.73,4.73,0,0,1,.37-1.49Z"/><path class="cls-3" d="M114.79,101.05a.5.5,0,0,0,.13.22,1,1,0,0,0,.78.17,1.44,1.44,0,0,0,.48-.24,1.52,1.52,0,0,0,.39-.41,5.49,5.49,0,0,0,.84-2.1,8,8,0,0,0,0-1h0a6.46,6.46,0,0,0,0-.88.81.81,0,0,0,0-.22,1.17,1.17,0,0,0-.13-.65v-.24a2.56,2.56,0,0,0-.23-.8,1.7,1.7,0,0,0-.18-.71A4,4,0,0,1,115,91.46a5.24,5.24,0,0,1-1,0,11,11,0,0,0-.09,1.13,3.27,3.27,0,0,0,1,2.51L116,96.65a5.8,5.8,0,0,1,.44,2.06,2.5,2.5,0,0,1-.76,1.86,1.9,1.9,0,0,1-.82.48Z"/><path class="cls-3" d="M115.94,53.8a2.31,2.31,0,0,0,.56,1.59,1,1,0,0,1-1.4,1.38,2.32,2.32,0,0,0-1.17-.41,2.53,2.53,0,0,0-1.86.61,2.79,2.79,0,0,0-.91,1.86,6.64,6.64,0,0,0,.45,1.39,1,1,0,0,1-.22,1.12,1,1,0,0,1-1.12.17l-.2-.28a4.72,4.72,0,0,0-1.25-.52,2,2,0,0,0-1.52.41,2.58,2.58,0,0,0-.8,1.85,5.2,5.2,0,0,0,.59,2h1.3a5.93,5.93,0,0,1,3.85,1.62,2.8,2.8,0,0,1,.35-.69.18.18,0,0,1,.12-.17h0c1.19-2.3,5-3,6.69-3.16h3.27a5.74,5.74,0,0,0,3.47-.31,3.93,3.93,0,0,0,1.49-2.19,3.21,3.21,0,0,0,0-.62c0-2.41-2.75-5.4-7.44-8.19h-.14a2.72,2.72,0,0,0-1.17-.37,2.59,2.59,0,0,0-2,.67A2.87,2.87,0,0,0,115.94,53.8Z"/><path class="cls-3" d="M102.3,51.6a60.34,60.34,0,0,1,8.71-.39l2.09.23h.24a1.39,1.39,0,0,0,.33-2.68h-.13a63.23,63.23,0,0,0-22.3,1.65,3.71,3.71,0,0,1,1.38,3v.19a70.71,70.71,0,0,1,9.77-1.86Z"/><path class="cls-3" d="M82.83,58.44a4.53,4.53,0,0,1,3.53,1.12,4.08,4.08,0,0,1,.93,1.35l1-.59A1.88,1.88,0,0,0,87.94,58a1.64,1.64,0,0,0-1.18-.39l-.76.24a1.11,1.11,0,0,1-1.13-.31.94.94,0,0,1-.13-1.1l.19-.3a1.88,1.88,0,0,0,.4-.91,2.12,2.12,0,0,0-.66-1.5,1.39,1.39,0,0,0-1.06-.37l-1,.2a1.1,1.1,0,0,1-1.09-.43,1,1,0,0,1,0-1.11,2.89,2.89,0,0,0-.43-3.81,2.67,2.67,0,0,0-.74-.45,2.42,2.42,0,0,0-1.16-.18l-.7.15h0c-1,.41-2,.83-2.94,1.26a.7.7,0,0,1-.31.28l.48.32a3,3,0,0,1,.43.29,4.82,4.82,0,0,1,1.67,3.4,1.31,1.31,0,0,1,0,.28,3.38,3.38,0,0,1,0,.45A4.34,4.34,0,0,1,81,55.1a4.58,4.58,0,0,1,1.58,3.21v.26h.26Z"/><path class="cls-3" d="M114,54.33a3.23,3.23,0,0,1,0-.44v-.28a1.5,1.5,0,0,1,0-.3,2.6,2.6,0,0,1-.63.11H112a4.53,4.53,0,0,1,.15.75,5,5,0,0,1,0,.55,4.33,4.33,0,0,1,1.85-.29Z"/><path class="cls-3" d="M72.88,80.67A.38.38,0,0,0,73,81a1.42,1.42,0,0,0,.66.5,5.54,5.54,0,0,1-.24-.82,1.63,1.63,0,0,1-.54,0Z"/><path class="cls-3" d="M104.81,130.76l-.19.15a28.5,28.5,0,0,1-3.71,3,88.25,88.25,0,0,1-15.93,7l-.5.15h-.21a1.1,1.1,0,0,0-.69,1.39,1.12,1.12,0,0,0,.69.69,52.25,52.25,0,0,0,20.45-7.62,14.39,14.39,0,0,0,2.36-2l.27-.26a3.81,3.81,0,0,1-2.34-2.54Z"/><path class="cls-3" d="M80.15,145.65a1.7,1.7,0,0,0-1,.35.9.9,0,0,1-.26.22,1.68,1.68,0,0,0-.05,2.39,1.18,1.18,0,0,0,.27.23,65.4,65.4,0,0,0,28.78-9.18l.92-.55,2.69-1.69a4.08,4.08,0,0,1-2.42-3.11l-.8.73a17.29,17.29,0,0,1-2.71,2.26,55,55,0,0,1-25.4,8.4Z"/><path class="cls-3" d="M83.72,134.11a4.13,4.13,0,0,1-2.33,3.08c.9.63,1.86,1.23,2.72,1.86h.11c1.34-.46,2.6-.93,3.83-1.39l-.84-.49a15.72,15.72,0,0,1-2.69-2.26Z"/><path class="cls-3" d="M90.44,136.67c1.38-.56,2.66-1.09,3.83-1.63-.72-.39-1.45-.8-2.26-1.3a31.46,31.46,0,0,1-3.81-3l-.19-.15a3.7,3.7,0,0,1-2.34,2.55l.28.26a13.6,13.6,0,0,0,2.36,2Z"/><path class="cls-3" d="M98.19,125.5a4.84,4.84,0,0,1,.28-1.45,8.83,8.83,0,0,1-1.26,0,6.53,6.53,0,0,1-1.25,0,4.69,4.69,0,0,1,.39,1.64,5,5,0,0,1-4.77,5.11h-.23a13.78,13.78,0,0,0,1.86,1.26,38.72,38.72,0,0,0,3.48,1.86,24.74,24.74,0,0,0,3.25-1.86,18.77,18.77,0,0,0,2.29-1.69,5.13,5.13,0,0,1-3.87-5Z"/><path class="cls-3" d="M119.14,95.08a2.36,2.36,0,0,1,.24-.4H119l.12.37Z"/><path class="cls-3" d="M78.14,138.51a2.58,2.58,0,0,0-.68-1.74l-.13-.15h0l-.58-.45a1,1,0,0,1-.16-1.38h0a1,1,0,0,1,1.36-.17l0,0,.7.54h0l.34.26a1.88,1.88,0,0,0,.78.2,2.14,2.14,0,0,0,2.06-2.21h0a2,2,0,0,0-.48-1.3,1,1,0,0,1-.21-.52v-.22a1,1,0,0,1,.69-1,1,1,0,0,1,1.15.34,1.84,1.84,0,0,0,3.31-1.12,1.93,1.93,0,0,0,0-.48,1,1,0,0,1-.35-.71,2.4,2.4,0,0,0-.39-.39,1,1,0,0,1-.25-1.39,1,1,0,0,1,1.38-.22h0A3.92,3.92,0,0,1,88,127.92l.47.39h0a5.65,5.65,0,0,0,2.8.58h.26a3.08,3.08,0,0,0,3-3.16h0a7.57,7.57,0,0,0-.85-2.25,14.71,14.71,0,0,1-2.29-1.12l-2.1-1.11-1.41-.56a14.6,14.6,0,0,1-6.43-5,5,5,0,0,1-2.08.46.66.66,0,0,1-.28,0,6,6,0,0,1-.85-.28v.48a4.83,4.83,0,0,1-4.69,4.87,4.75,4.75,0,0,1-4.62,4.2,5.12,5.12,0,0,1-1.17-.2,4.39,4.39,0,0,1-4.22,2.6h-.62a1.48,1.48,0,0,1,.17.33,42,42,0,0,0,3.72,5.36.77.77,0,0,1,.31.22,2.56,2.56,0,0,0,1.86.74,2.62,2.62,0,0,0,2.57-2.67v0a3,3,0,0,0-.28-1.25l-.34-.31a1,1,0,0,1,0-1.4,1,1,0,0,1,1.36-.13,1.84,1.84,0,0,0,1.37.5,2.64,2.64,0,0,0,2.57-2.69,2.86,2.86,0,0,0-.17-.87v-.13a1.08,1.08,0,0,1-.15-.52,1,1,0,0,1,.37-.78,1,1,0,0,1,1.32.09,1.88,1.88,0,0,0,1.62.54,2.63,2.63,0,0,0,2.56-2.68,2.71,2.71,0,0,0-1.13-2.23,1,1,0,0,1,1.13-1.61h0a4.69,4.69,0,0,1-2.56,8.51,8,8,0,0,1-1,0,4.58,4.58,0,0,1-4.5,4.44h-.13v.63a4.64,4.64,0,0,1-4.09,4.63c1.28,1.35,2.66,2.69,4.16,4a1.58,1.58,0,0,1,.36.2,2.36,2.36,0,0,0,1.65.66,2.59,2.59,0,0,0,2.46-2.7A.76.76,0,0,0,78.14,138.51Z"/><path class="cls-3" d="M80,143.68l1.64-.19a3.34,3.34,0,0,1-.32-1.35,3.1,3.1,0,0,1,.8-2.07L80,138.66A4.61,4.61,0,0,1,76.8,143l1.58,1.17a3.52,3.52,0,0,1,1.68-.45Z"/><path class="cls-3" d="M109,150.2a81.52,81.52,0,0,1-7.27,3.72l-2.15.91c6.91,2.08,13.12,2.52,17.78,1.28.11,0,.17-.13.3-.15h.09a2.67,2.67,0,0,0,2.58-2.71,2.76,2.76,0,0,0-2.84-2.55,20.36,20.36,0,0,1-2.47,0,50.4,50.4,0,0,1-6-.52Z"/><path class="cls-3" d="M55.84,120.52l-.8-1.85s-1.26-2.9-1.26-2.92-.54-1.6-.54-1.58l-1.11-3.42a55.27,55.27,0,0,1-2-14.87,4.72,4.72,0,0,1-6,.3,5.28,5.28,0,0,1-.92-.91v1.21c0,1.23,0,2.45.09,3.72a59.16,59.16,0,0,0,6.26,24.38,36.85,36.85,0,0,0,2.08,3.54l4,6.25a32.51,32.51,0,0,0,4.68,5.33l.13.15.57.54.64.54,1.24.72a3.17,3.17,0,0,0,.45.23,3.92,3.92,0,0,0,2.28.46,3.55,3.55,0,0,0,3-2v-.15a4.4,4.4,0,0,0,.49-1.26,50.23,50.23,0,0,1-7.77-10.07A56.42,56.42,0,0,1,55.84,120.52Z"/><path class="cls-3" d="M62.87,105.21a7.31,7.31,0,0,1,3.06-.54,76,76,0,0,1-1-10,4.66,4.66,0,0,1-2.53.78,4.48,4.48,0,0,1-2.26-.78A68.44,68.44,0,0,0,62,105.6a4.93,4.93,0,0,1,.93-.44Z"/><path class="cls-3" d="M114.47,147.26a2.77,2.77,0,0,0-.11-.48c-.86.6-1.75,1.19-2.64,1.75l2,.17A1.91,1.91,0,0,0,114.47,147.26Z"/><path class="cls-3" d="M72.18,119.13h.13a2.06,2.06,0,0,1,.7,0h.49a2.85,2.85,0,0,0,2.78-2.84,10.3,10.3,0,0,0-.42-2.2,8.17,8.17,0,0,1-.89-1.31l-.88-1.19L74,111.4a8,8,0,0,0-7.43-4.74,6.89,6.89,0,0,0-2.88.41,3.48,3.48,0,0,0-1.27.84,1,1,0,0,1-.44.52,10.23,10.23,0,0,0-1.1,1.86c-2.27,3.92-1.86,9.1.67,14.64h.11a2.48,2.48,0,0,0,2,.83,2.46,2.46,0,0,0,2.66-2.15,1,1,0,0,1,.65-.8,1,1,0,0,1,1,.2l.2.19a2.92,2.92,0,0,0,.88.17,2.84,2.84,0,0,0,2.65-2.68h0a.93.93,0,0,1-.14-.54.92.92,0,0,1,0-.33.93.93,0,0,1,.57-.62Z"/><path class="cls-3" d="M44.4,93.49A3.08,3.08,0,0,0,47,95.12a3.27,3.27,0,0,0,3.07-2.77,1,1,0,0,1,1.25-.6,1,1,0,0,1,.6.6c.41,1.42,1.47,2.92,2.83,2.92A3.09,3.09,0,0,0,58,92.34v-.12a1,1,0,0,1,.78-1,1,1,0,0,1,1.12.55,2.73,2.73,0,0,0,2.49,1.66,2.81,2.81,0,0,0,2.79-2.34,1,1,0,1,1,2-.13,1,1,0,0,1-.11.52,1.39,1.39,0,0,1-.13.44,64.73,64.73,0,0,0,1.06,12.81,9.88,9.88,0,0,1,7.81,5.7l.85,1.17v.09a4.17,4.17,0,0,0,2.79,2.4,3.56,3.56,0,0,0,1-.2l-.58-1.12a18.15,18.15,0,0,1-2.3-9.88h-.25a3.78,3.78,0,0,1-.81-.24l-.17.24a2.86,2.86,0,0,1-2,1,2.63,2.63,0,0,1-1.86-.84,2.85,2.85,0,0,1-.69-1.54,4.38,4.38,0,0,1-1.69-.86,3.16,3.16,0,0,1-1.15-2.34,1,1,0,0,1,0-.24l.28-1.08.2-.61c.12-.33.26-.78.6-.85s.59-.19.84,0l.65.66a3.72,3.72,0,0,0,.33.45.55.55,0,0,0,.22-.37c0-.21-.18-.48-.52-1a6.49,6.49,0,0,1-1.22-3.07l-.13-1.13v-.6a2.75,2.75,0,0,1-1.64-.76,2.81,2.81,0,0,1-.67-1.06A5.31,5.31,0,0,1,59.43,87a5.56,5.56,0,0,1-4,1.69,5.4,5.4,0,0,1-4.83-3.14,4.46,4.46,0,0,1-1.69.33A4.91,4.91,0,0,1,46.07,85a5.61,5.61,0,0,1-1.49-1.58,64.3,64.3,0,0,0-1,7.31h0a6.73,6.73,0,0,0,.93,2.71Z"/><path class="cls-3" d="M60.29,107.22a71.94,71.94,0,0,1-2-11.28,5.24,5.24,0,0,1-3.46,1.23,4,4,0,0,1-2.65-1.06A53.18,53.18,0,0,0,54,110.19s1.17,3.38,1.19,3.4l.52,1.56,1.18,2.74.79,1.71A14.73,14.73,0,0,1,59,109.28a15,15,0,0,1,1.27-2.06Z"/><path class="cls-3" d="M144.31,76.65a5.31,5.31,0,0,1-3.21,1.08,4.11,4.11,0,0,1-1.58-.37,4.57,4.57,0,0,1-4.42,3.31,5.07,5.07,0,0,1-2.94-1,5.06,5.06,0,0,1-4.68,3.53,5.14,5.14,0,0,1-4.37-2.42,1,1,0,0,1,.27-1.34h0a1,1,0,0,1,1.36.28h0a3.19,3.19,0,0,0,2.7,1.51,3.36,3.36,0,0,0,3.08-3.57,1,1,0,0,1,.71-1,1,1,0,0,1,1.11.43,3.27,3.27,0,0,0,2.72,1.53,2.83,2.83,0,0,0,2.8-2.85v0a1,1,0,0,1,1.08-.88.94.94,0,0,1,.41.13,4.09,4.09,0,0,0,1.71.67,3.3,3.3,0,0,0,2.32-.95,3.66,3.66,0,0,0,1.15-2.65V71c-2.5-4.53-5.72-7.66-9.42-8.72h-.63A8.17,8.17,0,0,0,125.73,68a10,10,0,0,0-.57,1.86v.55a11.26,11.26,0,0,1-1.58,4.71,18.87,18.87,0,0,1-2.4,2.8,1.21,1.21,0,0,1,.2.26,4.89,4.89,0,0,1,.62,1.6,4,4,0,0,1-.45,1.86,4.49,4.49,0,0,1,.21,1.26v.62a5.72,5.72,0,0,0,0,1.17A1.86,1.86,0,0,0,122,86a.88.88,0,0,0,.53.21,1.26,1.26,0,0,0,.34-.39,1,1,0,0,1,.82-.45,1.07,1.07,0,0,1,.89.43h0a.73.73,0,0,1,.22-.21,1,1,0,0,1,1.36.39,3.44,3.44,0,0,0,3,1.86,3.54,3.54,0,0,0,3.47-3.25,1,1,0,0,1,.45-.73.94.94,0,0,1,.35-.2,1,1,0,0,1,1.26.6h0a3.34,3.34,0,0,0,3.34,2.12,3.61,3.61,0,0,0,3.25-2.82,1,1,0,0,1,.6-.69.93.93,0,0,1,.91.09,2.92,2.92,0,0,0,1.69.67,3.64,3.64,0,0,0,2.17-.78,3.51,3.51,0,0,0,1.43-2.45h0a43.85,43.85,0,0,0-2-6,5.93,5.93,0,0,1-1.86,2.29Z"/><path class="cls-3" d="M112.74,138.9l-2.91,1.86-.91.56a67.65,67.65,0,0,1-30.33,9.53H75.41a2.78,2.78,0,0,0-2.84,2.53,2.69,2.69,0,0,0,2.6,2.73h0c.11,0,.19.11.28.15,5.35,1.43,12.6.61,20.35-2.1A75.44,75.44,0,0,0,116,143a4.59,4.59,0,0,1-3.29-4.2Z"/><path class="cls-3" d="M144.48,85.61a4,4,0,0,1-1.86-.43,5.33,5.33,0,0,1-4.75,3.23,5.68,5.68,0,0,1-4-1.58,5.37,5.37,0,0,1-7.21,2.46,5.5,5.5,0,0,1-1.62-1.21,2.66,2.66,0,0,1-2.45,2.6v.6l-.13,1.13a6.5,6.5,0,0,1-1.23,3.08c-.33.52-.52.78-.52,1a.56.56,0,0,0,.23.35l.33-.43.65-.68c.24-.25.48-.15.84,0s.48.53.59.87l.21.61.28,1.06v.24a3.13,3.13,0,0,1-1.12,2.29,4.1,4.1,0,0,1-1.67.83,2.72,2.72,0,0,1-.69,1.55,2.58,2.58,0,0,1-1.86.83,2.66,2.66,0,0,1-1.86-.8,2.46,2.46,0,0,1-.53.15,25.88,25.88,0,0,1-3.2,10.17c-.15.26-.3.48-.45.7a1.67,1.67,0,0,0,.63,0h.28a4.22,4.22,0,0,0,2.87-2.41v-.1s.89-1.22.85-1.15a11.3,11.3,0,0,1,8.18-5.76A56.66,56.66,0,0,0,126.46,92a3.53,3.53,0,0,1-.21-.65,1,1,0,0,1,.76-1.17,1,1,0,0,1,1.17.76v0l.11.36v.16a2.72,2.72,0,0,0,2.52,1.75,2.79,2.79,0,0,0,2.51-1.65,1,1,0,0,1,1.12-.56,1,1,0,0,1,.78,1A3.08,3.08,0,0,0,138.31,95h.13c1.38,0,2.44-1.5,2.83-2.92a1,1,0,0,1,1-.7,1,1,0,0,1,.95.78,3.26,3.26,0,0,0,3.05,2.77,3.5,3.5,0,0,0,2.6-1.4,4,4,0,0,0,1-2.56h0a59.89,59.89,0,0,0-1.07-7.43,5.82,5.82,0,0,1-1.6,1.32,5.66,5.66,0,0,1-2.75.74Z"/><path class="cls-3" d="M146.27,96.89a4.7,4.7,0,0,1-3-1.08,59.33,59.33,0,0,1-2.15,14.74c-.51,1.69-1.29,4.2-2.2,6.61h0a31.28,31.28,0,0,1-2.13,4.81,74.3,74.3,0,0,1-6.64,9.29.81.81,0,0,1-.3.25,53.76,53.76,0,0,1-6,7.34v.57a4.87,4.87,0,0,0,.24,1.51.92.92,0,0,0,.11.42,3.41,3.41,0,0,0,3,1.86h.17a2.8,2.8,0,0,0,1,0,4.43,4.43,0,0,0,1.53-.57l1.28-.76.69-.56.5-.49a1.29,1.29,0,0,1,.17-.16,34,34,0,0,0,4.64-5.32l4.05-6.28a42.48,42.48,0,0,0,2.34-3.88A59.56,59.56,0,0,0,150,100V95.25a6.55,6.55,0,0,1-1,.78,5.06,5.06,0,0,1-2.81.89Z"/><path class="cls-3" d="M46.55,82.91a2.87,2.87,0,0,0,2.21.93,2.55,2.55,0,0,0,1.64-.52,1.09,1.09,0,0,1,1.5.69,3.5,3.5,0,0,0,3.39,2.71,3.31,3.31,0,0,0,3.43-2.41,1,1,0,0,1,2,.24,3.55,3.55,0,0,0,3.41,3.71h.06a3.53,3.53,0,0,0,3-1.86,1,1,0,0,1,1-.5,1.1,1.1,0,0,1,.9-.43,1,1,0,0,1,.81.44,1.69,1.69,0,0,0,.34.41.63.63,0,0,0,.54-.2A2,2,0,0,0,71,84.88a6.6,6.6,0,0,0-.1-1.17V83.1a4.11,4.11,0,0,1,.21-1.26,4,4,0,0,1-.41-2.14,4.68,4.68,0,0,1,.61-1.58,1,1,0,0,1,.39-.39,16.74,16.74,0,0,1-1.85-2.49,10.92,10.92,0,0,1-1.6-4.72V70a9.33,9.33,0,0,0-.58-1.86,8.18,8.18,0,0,0-8.86-5.69h-.67c-3.72,1.1-6.86,4.22-9.29,8.74v1a4.26,4.26,0,0,0,1.06,2.7,3.16,3.16,0,0,0,2.39,1A3.31,3.31,0,0,0,54,75.39a1,1,0,0,1,.93,0,1,1,0,0,1,.54.78,2.69,2.69,0,0,0,2.73,2.66h.13A3.21,3.21,0,0,0,61,77.3a1,1,0,0,1,1.11-.43,1,1,0,0,1,.73,1A3.34,3.34,0,0,0,66,81.39a3.23,3.23,0,0,0,2.7-1.51,1,1,0,0,1,1.65,1.06,5,5,0,0,1-9-1.11,5,5,0,0,1-2.92,1,4.49,4.49,0,0,1-4.47-3.19,5.41,5.41,0,0,1-1.73.33,5.18,5.18,0,0,1-3.27-1.13,5.53,5.53,0,0,1-1.68-2.31,46.09,46.09,0,0,0-2,5.58h0A6.27,6.27,0,0,0,46.55,82.91Z"/><path class="cls-3" d="M121.48,130.6a7,7,0,0,0-.19,1.2,2.65,2.65,0,0,0,2.57,2.7,2.52,2.52,0,0,0,1.85-.76.8.8,0,0,1,.3-.19,45.07,45.07,0,0,0,4-5.7c-.22,0-.44,0-.65,0a4.38,4.38,0,0,1-4.44-2.77,4.27,4.27,0,0,1-5.38-2.71,5,5,0,0,1-.2-1h0a4.82,4.82,0,0,1-4.77-4.89h0a2.09,2.09,0,0,1,0-.5,4.81,4.81,0,0,1-.88.3.57.57,0,0,1-.26,0H113a3,3,0,0,1-1.86-.43,24.45,24.45,0,0,1-5.37,4.67l-1.48,1a16.6,16.6,0,0,1-3.52,2,5.38,5.38,0,0,0-.7,2,3.1,3.1,0,0,0,3,3.15,3,3,0,0,0,1.6-.46h0l.22-.19a3.71,3.71,0,0,1,1.26-1.54,1,1,0,1,1,1.15,1.62,1.61,1.61,0,0,0-.39.39,1.1,1.1,0,0,1-.35.7,2,2,0,0,0,0,.49,1.86,1.86,0,0,0,1.86,1.86,1.88,1.88,0,0,0,1.45-.75,1,1,0,0,1,1.86.67h0v.41a.91.91,0,0,1-.23.52,2.06,2.06,0,0,0-.46,1.3,2.14,2.14,0,0,0,2.06,2.18H114l.3-.13a1,1,0,0,1,1.31.47,1,1,0,0,1-.13,1,3.91,3.91,0,0,0-.72,1.69,2.58,2.58,0,0,0,2.42,2.4,2.47,2.47,0,0,0,1.67-.65,1.13,1.13,0,0,1,.35-.21c1-.85,1.86-1.72,2.77-2.6a.92.92,0,0,1,.43-.42l1-1a4.63,4.63,0,0,1-4-4.59v-.61h0a4.56,4.56,0,0,1-4.49-4.42h-1a4.61,4.61,0,0,1-4.55-4.65,4.7,4.7,0,0,1,2-3.85,1,1,0,0,1,1.15,1.62,2.71,2.71,0,0,0-1.13,2.23,2.65,2.65,0,0,0,2.56,2.68c.87,0,1.08,0,1.45-.45a1,1,0,0,1,1.69.78v.15a1.13,1.13,0,0,1,0,.26,2.69,2.69,0,0,0,1.47,3.51,2.73,2.73,0,0,0,.93.21c.65,0,.65,0,1-.3a1,1,0,0,1,1.3,0,1,1,0,0,1,.34.74,1,1,0,0,1-.17.54l-.24.37Z"/><path class="cls-3" d="M125.88,106.83h0a9.65,9.65,0,0,0-7.12,4.92l-.85,1.19a9.19,9.19,0,0,1-.6.93h0a13.38,13.38,0,0,0-.7,2.57,2.83,2.83,0,0,0,2.78,2.89h0l.76-.11a1.1,1.1,0,0,1,1.06.45,1.2,1.2,0,0,1,.18.61.68.68,0,0,1-.15.45,2.82,2.82,0,0,0,2.74,2.6,2.56,2.56,0,0,0,1-.2h.24a1,1,0,0,1,.93.11,1,1,0,0,1,.43.81h0a2.43,2.43,0,0,0,2.75,1.86,2.76,2.76,0,0,0,2.08-.94h.11c2.47-5.47,2.86-10.62.58-14.54a5.7,5.7,0,0,0-2.83-3.16,6.86,6.86,0,0,0-2.8-.48,1.06,1.06,0,0,1-.5,0Z"/><path class="cls-3" d="M135.12,121a30.57,30.57,0,0,0,2-4.5h0c.9-2.36,1.66-4.83,2.14-6.48a56.66,56.66,0,0,0,2.08-14.29A4,4,0,0,1,138.44,97,5.23,5.23,0,0,1,135,95.75a63.49,63.49,0,0,1-2.13,11.93.28.28,0,0,0,0,.13,15.22,15.22,0,0,1,1,1.66,15.6,15.6,0,0,1,.84,12.41l.5-.84Z"/><path class="cls-3" d="M128.32,94.45a62.25,62.25,0,0,1-1.08,10.37,6.46,6.46,0,0,1,2.6.52,4.67,4.67,0,0,1,1.34.71A60.89,60.89,0,0,0,133,94.51a4.5,4.5,0,0,1-2.31.67A4.66,4.66,0,0,1,128.32,94.45Z"/><path class="cls-3" d="M119.75,90.5a.25.25,0,0,0,0,.24l.22-.17a.77.77,0,0,1,.61-.11v-.13a4,4,0,0,1-.83-.47A3.42,3.42,0,0,0,119.75,90.5Z"/><path class="cls-3" d="M114.32,78.77a1.9,1.9,0,0,1-.68-.67h0a2.94,2.94,0,0,1-.25-.46,1.13,1.13,0,0,1,0,.26,5.4,5.4,0,0,1,.69,1.43h0a6.77,6.77,0,0,1,.21.89v.18a9.73,9.73,0,0,1,0,1.08,3.17,3.17,0,0,1-.13.86h0c.4.85.81,1,1.15,1h.35l.37-.13a2.31,2.31,0,0,0,.69-.46h0l.39-.48.26-.62h0v-.29a3.38,3.38,0,0,0,0-.45h0a2.09,2.09,0,0,0,0-.5V80.2a2.52,2.52,0,0,1-.2-.65v-.13l-.15-.5-.34-.65h0a2.06,2.06,0,0,1-.35.43,1.36,1.36,0,0,1-.87.4,1.1,1.1,0,0,1-.51,0,1.93,1.93,0,0,1-.46-.16h-.09Z"/><path class="cls-3" d="M115.31,76.52l.18-.44c.13-.36.39-.45.77-.49h0L116,75a8,8,0,0,0-1.26-2.38v.24a14.68,14.68,0,0,0,.43,3.85v-.19Z"/><path class="cls-3" d="M119,101.81a1.66,1.66,0,0,0,.19-.93,1.09,1.09,0,0,1,1-1s1.36-.24,1.64-1.19a1.77,1.77,0,0,1-.61.24l-1.08-.28a4.6,4.6,0,0,1-.62-.55,5.27,5.27,0,0,1-.13,1,6.74,6.74,0,0,1-1.17,2.88,1,1,0,0,0,.28.11A.74.74,0,0,0,119,101.81Z"/><path class="cls-3" d="M118.06,92.52a1.86,1.86,0,0,0,1.35.13,2.27,2.27,0,0,1-.61-.19,2.15,2.15,0,0,1-1-1.85A8.24,8.24,0,0,1,118,89v-.11l.09-.41v-.33A14.54,14.54,0,0,1,116.72,85a3.62,3.62,0,0,1-1.41.35,3,3,0,0,1-.6,0,1.87,1.87,0,0,1,.49,1.27V87a1.85,1.85,0,0,1-1,1.58,1.66,1.66,0,0,1-.73.17c0,.32,0,.6.23.69h0a3.45,3.45,0,0,0,1.5,0h.54a.93.93,0,0,1,.69.24,1,1,0,0,1,.3.69,2.21,2.21,0,0,0,1.11,2.21h.19Z"/><path class="cls-3" d="M75.89,90.16a.94.94,0,0,1,.39-.69,1,1,0,0,1,.69-.24h.54c.43,0,1.28.15,1.58-.11h0a1.5,1.5,0,0,0,.19-.61,2,2,0,0,1-.75-.19,1.85,1.85,0,0,1-1-1.56v-.32a1.86,1.86,0,0,1,.48-1.26,3.77,3.77,0,0,1-2.12-.46A16.63,16.63,0,0,1,74.43,88v.13a2.44,2.44,0,0,0,.14.71,7.68,7.68,0,0,1,.27,1.65,2.15,2.15,0,0,1-1,1.86,1.94,1.94,0,0,1-.63.2,2,2,0,0,0,1.56-.2l.19-.13a2.56,2.56,0,0,0,.93-2.08Z"/><path class="cls-3" d="M65.75,62.08a5.66,5.66,0,0,0,3.47.34h3.27c1.64.18,5.49.85,6.67,3.16h0a.71.71,0,0,1,.1.14,3.17,3.17,0,0,1,.54,1.71h0a7.49,7.49,0,0,1,4.34-2.49h.32a2.89,2.89,0,0,0,1.12-2.36A2,2,0,0,0,85,61a2.56,2.56,0,0,0-2-.59,4.53,4.53,0,0,0-1.24.52l-.26.13a1,1,0,0,1-1.14-.17,1,1,0,0,1-.22-1.11,5.59,5.59,0,0,0,.45-1.4,2.66,2.66,0,0,0-.91-1.85,2.41,2.41,0,0,0-1.86-.62,2.66,2.66,0,0,0-1.17.39A1,1,0,0,1,75.28,55a2.52,2.52,0,0,0,.54-1.6,3,3,0,0,0-1-2,2.7,2.7,0,0,0-1.53-.65h-.37a2.68,2.68,0,0,0-1.17.37.76.76,0,0,1-.3,0,25,25,0,0,0-5,3.72,6.72,6.72,0,0,0-2.32,4.61,3.11,3.11,0,0,0,0,.61,3.89,3.89,0,0,0,1.5,2.18Z"/><path class="cls-3" d="M74.07,94.68h-.78A3.88,3.88,0,0,1,73.81,96,11.16,11.16,0,0,1,74.07,94.68Z"/><path class="cls-3" d="M72.57,90.48l.22.16a.22.22,0,0,0,0-.22,3.53,3.53,0,0,0,0-.65,3.51,3.51,0,0,1-.84.48v.12A.79.79,0,0,1,72.57,90.48Z"/><path class="cls-3" d="M70.9,98.63c.31.91,1.61,1.16,1.61,1.16a1.13,1.13,0,0,1,1,1,1.67,1.67,0,0,0,.18.93.74.74,0,0,0,.5.24,1,1,0,0,0,.62-.37l.16-.22a7.67,7.67,0,0,1-1.11-2.79h0a7.88,7.88,0,0,1-.15-1.38,3.56,3.56,0,0,1-1.15,1.4l-1.08.28a2,2,0,0,1-.59-.23Z"/><path class="cls-3" d="M69.67,88s0,.26.09.32a1.06,1.06,0,0,0,.84.22h.15a2.85,2.85,0,0,0,1.82-1.34h0a6.63,6.63,0,0,0,.48-.81c.11-.22.21-.44.3-.67l.15-.38c.24-.61.46-1.24.67-1.85H74a1.41,1.41,0,0,1-.41,0,2.54,2.54,0,0,1-.71-.17A8.81,8.81,0,0,1,73,84.72a3.67,3.67,0,0,1-.72,2.52,2.57,2.57,0,0,1-2,1,1.36,1.36,0,0,1-.63-.11Z"/><path class="cls-3" d="M116.39,49.43v.24l.24-.11-.28-.13Z"/><path class="cls-3" d="M87.43,49.69a1,1,0,0,1,.36-.47A2.64,2.64,0,0,0,88.23,48a2.42,2.42,0,0,0-.55-1.85l-.25-.26a2.71,2.71,0,0,0-1.85-.62h0c-1.23.36-2.42.71-3.55,1.1q.19.14.39.3a2.13,2.13,0,0,1,.29.31A4.65,4.65,0,0,1,84,50.08a1.82,1.82,0,0,1,0,.33,4.86,4.86,0,0,1-.16,1.08,3.61,3.61,0,0,1,2.1.82,4.16,4.16,0,0,1,1.34,2.88v.17a1.55,1.55,0,0,1-.12.42,3.52,3.52,0,0,1,2,.82,3.7,3.7,0,0,1,1.28,2.58h0c.65-.27,1.34-.57,2.06-.83l.13-.3a1.45,1.45,0,0,0-1.11-1.72l-.21,0h-.78a1.06,1.06,0,0,1-1-.54.92.92,0,0,1,0-1.09l.22-.24a2.13,2.13,0,0,0,.57-.82,1.86,1.86,0,0,0-1.37-2.19h-1a1.06,1.06,0,0,1-1-.64,1,1,0,0,1,.19-1.07l.09-.1Z"/><path class="cls-3" d="M89.59,45.54a4.32,4.32,0,0,1,.58,2.16v.84a67,67,0,0,1,10.35-1.86,71.33,71.33,0,0,1,7.6-.32,55.79,55.79,0,0,1,7.3.56l.89.11h.24A1.67,1.67,0,0,0,118,45.34v-.11a1.63,1.63,0,0,0-.89-1.28c-4.74-2-13-2.25-22-.84a.92.92,0,0,1-.52,0h0c-1.34.22-2.67.48-4,.78-.65.13-1.3.3-1.86.45a2.57,2.57,0,0,1,.39.35,4.54,4.54,0,0,1,.52.72Z"/><path class="cls-3" d="M123,70.05v-.59a10.4,10.4,0,0,1,.67-2.25A13.11,13.11,0,0,1,125,64.78a7.71,7.71,0,0,1-2.71,0h-2.81c-2.64.28-4.76,1.17-5.18,2.15a1.36,1.36,0,0,1-.13.24c-.15.19-.17.26-.21.75v.54c0,.22.24,1,.39,1.61v.15c2,.65,2.62,2.21,3.42,4.15L118,75a5.89,5.89,0,0,1,.34,2.12v.5a.4.4,0,0,0,.15.3,23.88,23.88,0,0,0,3.08-3.72,9.23,9.23,0,0,0,1.34-4Z"/><path class="cls-3" d="M74.56,47.29c1-.5,2.15-1,3.3-1.45h0a73.57,73.57,0,0,1,10-3.19,32.8,32.8,0,0,0-13.15,1.72,1.64,1.64,0,0,0-.92,1.29v.2a1.43,1.43,0,0,0,.77,1.45Z"/><path class="cls-3" d="M122,88.66a1.14,1.14,0,0,0,.86-.21v-.31a1.67,1.67,0,0,1-.63,0,2.67,2.67,0,0,1-2-.93,3.84,3.84,0,0,1-.73-2.51,8.56,8.56,0,0,1,.12-1.34,2.54,2.54,0,0,1-.71.17h-.56c.21.63.43,1.26.67,1.85l.11.27c.09.22.19.43.3.65a6.4,6.4,0,0,0,.48.79h0a2.86,2.86,0,0,0,1.86,1.36Z"/><path class="cls-3" d="M119.36,81.43l.3-.34h0c.06-.11.11-.22.16-.33a1.62,1.62,0,0,1-.44,0h0v.57Z"/><path class="cls-3" d="M90.41,96.76l-.43.11a2.54,2.54,0,0,0,.5-1.52,2.51,2.51,0,0,0-.24-1.08l.52.22a3.59,3.59,0,0,1,.39.39A3.48,3.48,0,0,1,92,96.53v.15a3.63,3.63,0,0,0-1.54,0Zm-1.69-1.45a.32.32,0,0,1-.3-.34h0a.32.32,0,0,1,.3-.31A.31.31,0,0,1,89,95a.32.32,0,0,1-.29.34Z"/><path class="cls-3" d="M85.87,94.25h-.13c-.18.17-.37.35-.59.59l-.45.69v.13a2.54,2.54,0,0,0,0,.39,9.5,9.5,0,0,0,.93.63,2,2,0,0,0,.74.24,2.49,2.49,0,0,1-.61-1.63,2.81,2.81,0,0,1,.26-1.1Z"/><path class="cls-3" d="M88.72,94.68a.31.31,0,0,0-.3.31.32.32,0,1,0,.31-.31Z"/><path class="cls-3" d="M92,96.53a3.48,3.48,0,0,0-.82-1.65,3.59,3.59,0,0,0-.39-.39l-.52-.22a2.51,2.51,0,0,1,.24,1.08,2.54,2.54,0,0,1-.5,1.52l.43-.11a3.34,3.34,0,0,1,1.54,0v-.15Z"/><path class="cls-3" d="M108.77,97.33a2.36,2.36,0,0,1-.9.24,2.55,2.55,0,0,0,.9-1.85,2.52,2.52,0,0,0-.17-.9,4.39,4.39,0,0,1,.63.51,2.62,2.62,0,0,1,.58,1.15,1.61,1.61,0,0,0,0,.31l-1.08.62Zm-1.68-1.65a.32.32,0,1,1,.32-.32A.31.31,0,0,1,107.09,95.68Zm-2.73,1.43-.57-.15a3.1,3.1,0,0,0-1.21-.11,3.35,3.35,0,0,1,.54-1.5c0-.12.15-.19.22-.28l.37-.32a3.12,3.12,0,0,1,.56-.39,2.51,2.51,0,0,0-.35,1.28,2.55,2.55,0,0,0,.48,1.49Z"/><path class="cls-3" d="M104.27,94.36a3.12,3.12,0,0,0-.56.39l-.37.32c0,.09-.15.16-.22.28a3.35,3.35,0,0,0-.54,1.5,3.1,3.1,0,0,1,1.21.11l.57.15h0a2.55,2.55,0,0,1-.48-1.49,2.51,2.51,0,0,1,.35-1.28Z"/><path class="cls-3" d="M107.09,95a.34.34,0,0,0-.31.33.32.32,0,1,0,.63,0A.34.34,0,0,0,107.09,95Z"/><path class="cls-3" d="M109.23,95.25a5.12,5.12,0,0,0-.63-.5,2.47,2.47,0,0,1,.17.89,2.57,2.57,0,0,1-.9,1.86,2.36,2.36,0,0,0,.9-.24l1.07-.61v-.32a2.6,2.6,0,0,0-.57-1.15Z"/><path class="cls-3" d="M110.81,96.74l-.2.15v.24l-1.55.89a3.91,3.91,0,0,1-1.85.3h-.41l-1.58-.26-.91-.21-.69-.18a1.82,1.82,0,0,0-1.3,0l-.5.15V97.3a4.86,4.86,0,0,1,0-.54l-.67,1-.11-.57a2.85,2.85,0,0,1,0-1.3,2.22,2.22,0,0,1,.87-1.36l.3-.28a4.09,4.09,0,0,1,1.69-1,6.52,6.52,0,0,1,2.77-.39,5.31,5.31,0,0,1,1.85.33,2.73,2.73,0,0,1,1.86,1.41c.36.54.78,1.86.41,2.12ZM106,99.12a.35.35,0,0,1-.42.22l0,0-.65-.24-1-.32h-1.79a.36.36,0,0,1-.4-.33h0A.35.35,0,0,1,102,98h2l1.21.35.59.25a.39.39,0,0,1,.23.48Zm-1.86,13.69a1.16,1.16,0,0,1-1.15.43,1.52,1.52,0,0,1-.75-.37l-.13.15a2.78,2.78,0,0,1-2.12.44l-1-.2a.34.34,0,0,1-.2,0h-.21l-.65-.19a.89.89,0,0,0-.5.15l-.69.22L96,113.3l-.45,0-1,.09-.83.13h-.26a3.11,3.11,0,0,1-1.6-.18,2.35,2.35,0,0,1-.86-.6,1.61,1.61,0,0,1-1.22.3,1.41,1.41,0,0,1-.54-.11l.18-.47h0a1.09,1.09,0,0,0,.36,0,1.24,1.24,0,0,0,.8-.37l-.19-.26h.33a.71.71,0,0,0,.15-.48,2.09,2.09,0,0,0,0-.5l.49-.12v.25a1.37,1.37,0,0,1,0,1l.54.15a1.62,1.62,0,0,0,1,0l.63-.44.28-.24.28-.28.59-.5.91-.3h1.19l.58-.17h.15a2.89,2.89,0,0,1,.72,0h.35a1.14,1.14,0,0,1,.77.26l.29.34.78.74.89.44a1.75,1.75,0,0,0,.56,0,3.53,3.53,0,0,1,0-.46,1,1,0,0,1,.41-.85h0l.34.35c-.15.22,0,.46.09.87H103l-.24.28c.13.22.37.24.86.22h.76l-.28.41Zm-4.68,2.64c-.32.24-.49.43-.49.69h0l.21,1,.13.56-.75-.33-.74-.38h-1a2.87,2.87,0,0,1-2.32-1l-.34-.32-.15-.13v-.15c0-.2.23-.2.73-.16H95l1,.16.64.15a2.35,2.35,0,0,0,1.39,0h.22a2.19,2.19,0,0,0,.88-.52h0l.31.39ZM88.66,98.91a.37.37,0,1,1-.19-.72l1.34-.32.93-.15h.48a.38.38,0,0,1,.43.31h0c.09-.22.16-.44.23-.67a2.27,2.27,0,0,0-1.21.13l-1,.22h-1a2.62,2.62,0,0,1-.56,0h-.44a6.47,6.47,0,0,1-2.53-.52c-.86-.54-1.19-.78-1.28-1a.37.37,0,0,1-.21,0,.37.37,0,0,1-.11-.33h0l.39-1.29a2.81,2.81,0,0,1,.93-1.17,3.75,3.75,0,0,1,1.86-.94,6.14,6.14,0,0,1,2.34,0,3.72,3.72,0,0,1,1.19.48,1.46,1.46,0,0,0,1.08.33l.2-.09h0a.49.49,0,0,1,.24-.46c.41-.23,1,.68,1.23,1.09l.33.82V95l.21,1a2.86,2.86,0,0,1-.19,1.23l-.57.8-.54.4-.39.26-.15.17a.74.74,0,0,1-.63.34.32.32,0,0,1-.32-.23c0-.22.11-.37.34-.57h-.51l-.81.13-1.34.31Zm-4.09-9.57a9.07,9.07,0,0,1,3.24-.24h.55l1.17.15,1.29.45.68.26a.41.41,0,0,1,.23.5.37.37,0,0,1-.49.2l-.7-.28-1.25-.33-1-.13h-.59a8.45,8.45,0,0,0-3.05.18.37.37,0,0,1-.45-.27h0a.36.36,0,0,1,.24-.44h0Zm9.8,13a.25.25,0,0,1,0,.17.39.39,0,0,1-.12.24h0l-1,1.23s-.26.52-.33.63c.26.48.33.52.72.5h.26l.32-.15a2,2,0,0,1,1.07-.28L96,105l.46.22h1.1l.44-.14.67-.21.77.22.35.17H100l.65.28.14.09.39.43v.32c-.2.29-.79.39-1.41.46H98.21l-.54.2a1.19,1.19,0,0,1-1,.19l-.48-.3-.3-.2a.91.91,0,0,0-.61,0,1.47,1.47,0,0,1-1,0,2.21,2.21,0,0,1-1.13-.91l-.39,0a1.47,1.47,0,0,1-.45-.93.6.6,0,0,1,0-.19.6.6,0,0,1,0-.19c0-.81,1.32-2,1.54-2.13s.3-.21.45,0Zm8.25-12.08.48-.28.91-.46a6.52,6.52,0,0,1,3.27-.43,5.59,5.59,0,0,1,1.67.35l.86.25a.41.41,0,0,1,.26.48.35.35,0,0,1-.44.24h0l-.91-.28a5.28,5.28,0,0,0-1.47-.31,5.71,5.71,0,0,0-3,.44l-.86.43-.52.28a.35.35,0,0,1-.48-.12l0,0a.37.37,0,0,1,.17-.5h0ZM113.37,99a1.12,1.12,0,0,1,.93.11.68.68,0,0,0,.15-.48,3.29,3.29,0,0,0-.28-1.23l-.78-1.11a5.13,5.13,0,0,1-1.45-3.81,12.34,12.34,0,0,1,.15-1.71v-.26a4.43,4.43,0,0,1-.61-3.31,1,1,0,0,1,.54-.72,1,1,0,0,1,.89,0H113a3.11,3.11,0,0,1-1.45-.93h0a3.33,3.33,0,0,1-3.72-.48,3.51,3.51,0,0,1-1-4.18h.09a5.49,5.49,0,0,1-2.73-1.68,4.43,4.43,0,0,1-6.22.71,4.49,4.49,0,0,1-1.42-2,4.35,4.35,0,0,1-.61.45A4.48,4.48,0,0,1,92,80.65a3.92,3.92,0,0,1-2.45-1,5.84,5.84,0,0,1-3.61.93h-.32a1.06,1.06,0,0,1,.28.32,3.49,3.49,0,0,1-1,4.16,3.31,3.31,0,0,1-3.72.5h0a3,3,0,0,1-1.46.91h.07a1,1,0,0,1,.89,0,1,1,0,0,1,.54.73,5.41,5.41,0,0,1-.2,2.56l.2.6a5.72,5.72,0,0,1-1.3,5.57L79.13,97a3.47,3.47,0,0,0-.3,1.26.79.79,0,0,0,.15.51,1,1,0,0,1,.93-.13,1,1,0,0,1,.65.72,3.71,3.71,0,0,1-.84,2.77l-.16.13a16.2,16.2,0,0,0,2,9.61A12.59,12.59,0,0,0,85,116.57a11,11,0,0,0,3.72,2.19l1.43.61,2.12,1.1a17.64,17.64,0,0,0,2.23,1.08h0a8.84,8.84,0,0,0,2.84.5h0l-.59-.06-1-.2a.4.4,0,0,1-.35-.43c0-.2.17-.35.35-.32l1.27.25.65.13.76-.15,1.1-.23a.36.36,0,0,1,.39.3.42.42,0,0,1-.34.45l-.93.2-.68.11a9,9,0,0,0,5.38-2.21l1.55-1a18.94,18.94,0,0,0,2.8-2.1,16.62,16.62,0,0,0,2.68-2.88l.18-.28c.23-.31.47-.67.71-1.07a23.67,23.67,0,0,0,2.92-9.41,3.37,3.37,0,0,1-.67-.44,3.85,3.85,0,0,1-.82-3,1,1,0,0,1,.65-.7Z"/><path class="cls-3" d="M256.05,42.83V68c0,11.49-6.75,15.93-18.06,15.93-11.84,0-17.25-4.44-17.25-14.22V42.83l-5.89-2.34V38.93h18.46v1.65l-5.95,2.34V69.18c0,7.86,3.72,11.49,11.76,11.49,8.57,0,12.38-3.5,12.38-11.15V42.83l-5.87-2.34V38.93h16.48v1.65Z"/><path class="cls-3" d="M298.4,53.68V83.53h-2.84L274,56.86v22.6l5.58,2v1.86H264.69V81.43l5.58-2V53.68l-5.58-1.85V50h10.83l19.07,23.47V53.68l-5.48-1.85V50h14.77v1.86Z"/><path class="cls-3" d="M309.57,83.27V81.41l5.57-2V53.68l-5.57-1.85V50h17.26v1.86l-5.57,1.85V79.46l5.57,2v1.86Z"/><path class="cls-3" d="M363.34,53.68l-13.5,29.85h-3.35l-12.17-29.9-4.48-1.86V49.91h15.52v1.86l-4.22,1.86,8.64,23,9.49-23-4.14-1.86V49.91H368v1.86Z"/><path class="cls-3" d="M399,83.27H371.07V81.41l5.49-2V53.63l-5.49-1.86V49.91h27.77v8H396.7L394,52.55h-11.3V64.94H392l1.85-4.31H396V71.91h-2.17L392,67.6h-9.29V80.29h11.5l3.34-5.57h2.14Z"/><path class="cls-3" d="M432.19,83.27,419.89,67.4h-2V79.46l5.22,2v1.86h-17V81.43l5.48-2V53.63l-5.48-1.86V49.91H423c5.58,0,11.71,1.19,11.71,7.86,0,4.89-3,7.68-8.36,8.75l10.49,13,4.15,2v1.86ZM421.92,52.55h-4V64.74h3.88a5.7,5.7,0,0,0,6.35-5,5.83,5.83,0,0,0,0-1.32C428.1,54.26,426,52.55,421.92,52.55Z"/><path class="cls-3" d="M455.87,83.9A53,53,0,0,1,445,82.24V74.07h2.47l2.62,6.6a19.32,19.32,0,0,0,4.54.55c4.63,0,7.1-2.15,7.1-5.7,0-2.29-.93-3.37-4.56-5.58l-5.4-3.14c-3.72-2.15-6.43-4.07-6.43-8.51,0-5.57,4.48-9.07,11.44-9.07A60.9,60.9,0,0,1,467,50.36v8.25h-2.32L462,52.09a21,21,0,0,0-3.72-.21c-4.68,0-7.15,1.86-7.15,4.89,0,2.67,2.27,3.71,4.35,5l5.81,3.47c4.09,2.49,7.29,4.13,7.29,9.3C468.37,80.22,463.5,83.9,455.87,83.9Z"/><path class="cls-3" d="M475.4,83.27V81.41l5.57-2V53.68l-5.57-1.85V50h17.26v1.86l-5.48,1.85V79.46l5.48,2v1.86Z"/><path class="cls-3" d="M526,58.57l-2.4-5.7h-8V79.46l5.82,2v1.86H503.44V81.43l5.81-2V52.87h-7.62L499,58.57h-2.21V49.89h31.36v8.68Z"/><path class="cls-3" d="M548.93,83.27V81.41l4.21-2-3.34-8.92H538.22l-3.55,8.88,4.15,2v1.86h-13.1V81.37l4.81-2,13.71-29.9h4l11.91,29.9,4.81,2v1.86Zm.2-37.63-13.45-9.59h9.64l7.29,9.59Zm-4.68,10.2L539.36,67.9H549C547.46,63.9,546.05,59.85,544.45,55.84Z"/><path class="cls-3" d="M235.39,153.77H218.2v-1.86l5.48-2V124.18l-5.48-1.85v-1.86h18.06c11,0,18.79,4.64,18.79,15.94C255.05,148,247,153.77,235.39,153.77Zm.2-30.4H230v27.41h5c9.08,0,13.17-5.84,13.17-14.09C248.1,128.94,244.34,123.37,235.59,123.37Z"/><path class="cls-3" d="M261.07,153.77v-1.86l5.57-2V124.18l-5.57-1.85v-1.86h17.26v1.86l-5.48,1.85V150l5.48,2v1.86Z"/><path class="cls-3" d="M329,131.84A20.27,20.27,0,0,1,317.24,135h-5v14.86l7.28,2.29v1.65H299.74v-1.65l5.94-2.29V113.26l-5.94-2.34v-1.66h17.72c6.16,0,9.7,1,12.58,3.37a11.35,11.35,0,0,1,4,9.29A11.53,11.53,0,0,1,329,131.84Zm-11.83-19.79h-4.89v20.26h3.21c7.29,0,11.56-3.24,11.56-10.34.1-6.28-3.16-10-9.92-10Z"/><path class="cls-3" d="M338.07,153.77v-1.86l5.58-2V124.18l-5.58-1.85v-1.86h17.27v1.86l-5.58,1.85V150l5.58,2v1.86Z"/><path class="cls-3" d="M373.19,154.4a53.51,53.51,0,0,1-10.83-1.65v-8.18h2.47l2.6,6.6a19.42,19.42,0,0,0,4.56.55c4.6,0,7.09-2.15,7.09-5.7,0-2.29-.94-3.36-4.55-5.58l-5.42-3.23c-3.72-2.15-6.42-4.07-6.42-8.51,0-5.57,4.48-9.07,11.43-9.07a59.87,59.87,0,0,1,10.17,1.14V129h-2.4l-2.71-6.47a21.12,21.12,0,0,0-3.81-.2c-4.69,0-7.18,1.85-7.18,4.88,0,2.68,2.29,3.72,4.35,5l5.84,3.48c4.07,2.49,7.28,4.12,7.28,9.29C385.7,150.72,380.81,154.4,373.19,154.4Z"/><path class="cls-3" d="M410.25,153.77v-1.86l4.23-1.95-3.36-8.83h-11.5L396.07,150l4.16,2v1.86H387.11V152l4.81-2,13.72-29.89h4L421.56,150l4.82,2v1.86Zm-4.48-27.5-5.09,12.06h9.64C408.78,134.41,407.37,130.35,405.77,126.27Z"/><line class="cls-4" x1="207.4" y1="7" x2="180.2" y2="193"/></svg>